<svg width="267" height="126" viewBox="0 0 267 126" fill="none" xmlns="http://www.w3.org/2000/svg">
<path d="M150.049 25.1909L124.673 62.9771H141.59L137.361 69.2747H145.819L162.737 44.084L158.507 37.7864L145.819 56.6796H137.361L154.278 31.4885L150.049 25.1909ZM150.049 25.8741L153.819 31.4885L136.648 57.0585H146.023L158.507 38.4692L162.278 44.084L145.615 68.8958H138.074L142.303 62.5983H125.386L150.049 25.8741Z" fill="url(#paint0_linear_159_513)"/>
<path d="M166.966 50.3818L154.278 69.2749H179.654L166.966 50.3818ZM166.966 51.0649L178.94 68.896H154.991L166.966 51.0649Z" fill="url(#paint1_linear_159_513)"/>
<path d="M99.2975 62.9771L124.673 25.1909H133.132L107.756 62.9771H99.2975ZM145.82 18.8933H120.444L86.6096 69.2747H111.985L145.82 18.8933ZM98.5845 63.356H107.96L133.845 24.812H124.469L98.5845 63.356ZM145.106 19.2722L111.781 68.8958H87.3229L120.648 19.2722H145.106Z" fill="url(#paint2_linear_159_513)"/>
<path d="M124.673 12.5955H141.59L133.132 0L124.673 12.5955Z" fill="url(#paint3_linear_159_513)"/>
<path d="M31.9131 102.645V102.908C31.4463 103 31.0315 103.173 30.6685 103.425C30.3051 103.677 29.9475 104.095 29.5949 104.676C29.2422 105.258 28.8739 106.1 28.4903 107.202L22.0641 126H21.8305L15.9802 107.202H15.9024L9.53798 126H9.30478L2.78506 105.271C2.54651 104.54 2.26141 104.009 1.92935 103.68C1.59768 103.351 1.29425 103.147 1.01945 103.069C0.744641 102.992 0.404572 102.938 0 102.908V102.645H7.11093V102.908C6.48842 102.949 6.01897 103.135 5.70256 103.463C5.38616 103.793 5.22814 104.2 5.22814 104.684C5.22814 105.054 5.31631 105.518 5.49264 106.074L10.3319 121.443H10.3941L15.5909 106.074L15.373 105.379C15.1654 104.71 14.8543 104.141 14.4398 103.673C14.0245 103.204 13.3765 102.949 12.4948 102.908V102.645H19.8233V102.908C18.9935 102.918 18.4561 103.129 18.2126 103.541C17.9691 103.953 17.8474 104.334 17.8474 104.684C17.8474 105.127 17.9252 105.59 18.0806 106.074L22.8572 121.443H22.9198L27.7899 107.202C27.935 106.821 28.0674 106.373 28.1869 105.858C28.3059 105.344 28.3655 104.905 28.3655 104.545C28.3655 103.845 28.2124 103.407 27.9063 103.232C27.6002 103.057 27.1052 102.949 26.4205 102.908V102.645H31.9131Z" fill="url(#paint4_linear_159_513)"/>
<path d="M60.814 113.056V105.441C60.814 104.7 60.6118 104.092 60.2072 103.618C59.8026 103.145 59.1751 102.907 58.3244 102.907V102.645H65.622V102.907C64.7712 102.907 64.1491 103.142 63.7548 103.61C63.3606 104.079 63.1636 104.689 63.1636 105.441V122.648C63.1636 124.316 63.9831 125.15 65.622 125.15V125.398H58.3244V125.15C59.1022 125.15 59.7118 124.942 60.1526 124.525C60.5938 124.108 60.814 123.493 60.814 122.679V113.751H47.6815V122.648C47.6815 123.441 47.9074 124.057 48.3586 124.494C48.8097 124.932 49.4139 125.15 50.1711 125.15V125.398H42.8736V125.15C43.6617 125.15 44.2663 124.932 44.6865 124.494C45.1063 124.057 45.3166 123.441 45.3166 122.648V105.441C45.3166 103.752 44.5021 102.907 42.8736 102.907V102.645H50.1711V102.907C49.3101 102.907 48.6795 103.142 48.2807 103.61C47.8811 104.079 47.6815 104.689 47.6815 105.441V113.056H60.814Z" fill="url(#paint5_linear_159_513)"/>
<path d="M84.6737 102.645V102.908C83.9886 102.908 83.4077 103.099 82.931 103.479C82.4536 103.86 82.215 104.494 82.215 105.379V122.648C82.215 123.524 82.4692 124.159 82.9776 124.556C83.4856 124.952 84.0512 125.151 84.6737 125.151V125.398H77.4071V125.151C78.0708 125.151 78.6441 124.957 79.1265 124.572C79.6086 124.185 79.8502 123.544 79.8502 122.648V105.379C79.8502 104.432 79.6086 103.783 79.1265 103.433C78.6441 103.083 78.0708 102.908 77.4071 102.908V102.645H84.6737Z" fill="url(#paint6_linear_159_513)"/>
<path d="M116.111 107.078H115.862C115.748 105.595 115.312 104.635 114.555 104.198C113.797 103.76 112.864 103.541 111.754 103.541H107.195V122.648C107.195 124.266 108.024 125.099 109.684 125.15V125.398H102.387V125.15C103.071 125.13 103.65 124.932 104.122 124.556C104.594 124.18 104.83 123.544 104.83 122.648V103.541H100.271C99.1608 103.541 98.2299 103.76 97.4777 104.198C96.7254 104.635 96.2876 105.595 96.1628 107.078H95.914V101.517H96.1628C96.3288 101.775 96.4742 101.965 96.5983 102.089C96.7231 102.213 96.8838 102.318 97.0807 102.406C97.2777 102.493 97.509 102.555 97.7735 102.591C98.038 102.627 98.3517 102.645 98.7147 102.645H113.559C114.544 102.645 115.312 102.269 115.862 101.517H116.111V107.078Z" fill="url(#paint7_linear_159_513)"/>
<path d="M127.336 102.908V102.645H140.997V106.228H140.779C140.779 104.313 139.493 103.355 136.92 103.355H132.144V113.689H136.345C137.174 113.689 137.916 113.556 138.57 113.287C139.223 113.02 139.596 112.407 139.69 111.449H139.924V116.609H139.69C139.596 116.022 139.42 115.571 139.161 115.257C138.901 114.944 138.645 114.734 138.391 114.632C138.136 114.529 137.911 114.477 137.714 114.477C137.341 114.415 136.951 114.384 136.547 114.384H132.144V122.463C132.144 123.07 132.26 123.596 132.494 124.039C132.727 124.481 133.269 124.703 134.119 124.703H137.527C138.346 124.703 139.021 124.584 139.55 124.347C140.079 124.111 140.496 123.781 140.803 123.358C141.108 122.937 141.365 122.427 141.573 121.83H141.791L140.997 125.398H127.336V125.151H127.647C128.134 125.151 128.612 124.955 129.078 124.564C129.545 124.172 129.779 123.534 129.779 122.648V105.503C129.779 104.803 129.62 104.195 129.304 103.68C128.987 103.165 128.435 102.908 127.647 102.908H127.336Z" fill="url(#paint8_linear_159_513)"/>
<path d="M191.236 113.056V105.441C191.236 104.7 191.034 104.092 190.63 103.618C190.225 103.145 189.597 102.907 188.747 102.907V102.645H196.044V102.907C195.193 102.907 194.571 103.142 194.177 103.61C193.783 104.079 193.586 104.689 193.586 105.441V122.648C193.586 124.316 194.405 125.15 196.044 125.15V125.398H188.747V125.15C189.524 125.15 190.134 124.942 190.575 124.525C191.016 124.108 191.236 123.493 191.236 122.679V113.751H178.104V122.648C178.104 123.441 178.33 124.057 178.781 124.494C179.232 124.932 179.836 125.15 180.593 125.15V125.398H173.296V125.15C174.084 125.15 174.688 124.932 175.109 124.494C175.529 124.057 175.739 123.441 175.739 122.648V105.441C175.739 103.752 174.924 102.907 173.296 102.907V102.645H180.593V102.907C179.732 102.907 179.102 103.142 178.703 103.61C178.303 104.079 178.104 104.689 178.104 105.441V113.056H191.236Z" fill="url(#paint9_linear_159_513)"/>
<path d="M215.096 102.645V102.908C214.411 102.908 213.83 103.099 213.353 103.479C212.876 103.86 212.637 104.494 212.637 105.379V122.648C212.637 123.524 212.891 124.159 213.4 124.556C213.908 124.952 214.474 125.151 215.096 125.151V125.398H207.829V125.151C208.493 125.151 209.066 124.957 209.549 124.572C210.031 124.185 210.272 123.544 210.272 122.648V105.379C210.272 104.432 210.031 103.783 209.549 103.433C209.066 103.083 208.493 102.908 207.829 102.908V102.645H215.096Z" fill="url(#paint10_linear_159_513)"/>
<path d="M227.005 125.15H227.316C227.877 125.15 228.372 124.932 228.802 124.494C229.233 124.057 229.448 123.441 229.448 122.648V105.471C229.448 104.524 229.207 103.866 228.725 103.494C228.242 103.123 227.669 102.928 227.005 102.907V102.645H234.334V102.907C233.691 102.928 233.12 103.119 232.622 103.479C232.125 103.84 231.876 104.504 231.876 105.471V122.077C231.876 123.066 232.125 123.75 232.622 124.131C233.12 124.512 233.934 124.703 235.065 124.703H237.042C237.902 124.703 238.589 124.6 239.103 124.393C239.616 124.188 240.023 123.874 240.324 123.451C240.626 123.029 240.932 122.432 241.242 121.659H241.507L240.635 125.398H227.005V125.15Z" fill="url(#paint11_linear_159_513)"/>
<path d="M252.498 125.15H252.809C253.37 125.15 253.865 124.932 254.295 124.494C254.726 124.057 254.941 123.441 254.941 122.648V105.471C254.941 104.524 254.7 103.866 254.218 103.494C253.735 103.123 253.162 102.928 252.498 102.907V102.645H259.827V102.907C259.184 102.928 258.614 103.119 258.115 103.479C257.618 103.84 257.369 104.504 257.369 105.471V122.077C257.369 123.066 257.618 123.75 258.115 124.131C258.614 124.512 259.428 124.703 260.559 124.703H262.535C263.395 124.703 264.082 124.6 264.596 124.393C265.11 124.188 265.516 123.874 265.818 123.451C266.118 123.029 266.424 122.432 266.735 121.659H267L266.129 125.398H252.498V125.15Z" fill="url(#paint12_linear_159_513)"/>
<defs>
<linearGradient id="paint0_linear_159_513" x1="259.749" y1="125.397" x2="259.749" y2="102.645" gradientUnits="userSpaceOnUse">
<stop stop-color="#F1DCA9"/>
<stop offset="1" stop-color="#E4CB89"/>
</linearGradient>
<linearGradient id="paint1_linear_159_513" x1="259.749" y1="125.397" x2="259.749" y2="102.645" gradientUnits="userSpaceOnUse">
<stop stop-color="#F1DCA9"/>
<stop offset="1" stop-color="#E4CB89"/>
</linearGradient>
<linearGradient id="paint2_linear_159_513" x1="259.749" y1="125.397" x2="259.749" y2="102.645" gradientUnits="userSpaceOnUse">
<stop stop-color="#F1DCA9"/>
<stop offset="1" stop-color="#E4CB89"/>
</linearGradient>
<linearGradient id="paint3_linear_159_513" x1="259.749" y1="125.397" x2="259.749" y2="102.645" gradientUnits="userSpaceOnUse">
<stop stop-color="#F1DCA9"/>
<stop offset="1" stop-color="#E4CB89"/>
</linearGradient>
<linearGradient id="paint4_linear_159_513" x1="259.749" y1="125.397" x2="259.749" y2="102.645" gradientUnits="userSpaceOnUse">
<stop stop-color="#F1DCA9"/>
<stop offset="1" stop-color="#E4CB89"/>
</linearGradient>
<linearGradient id="paint5_linear_159_513" x1="259.749" y1="125.397" x2="259.749" y2="102.645" gradientUnits="userSpaceOnUse">
<stop stop-color="#F1DCA9"/>
<stop offset="1" stop-color="#E4CB89"/>
</linearGradient>
<linearGradient id="paint6_linear_159_513" x1="259.749" y1="125.397" x2="259.749" y2="102.645" gradientUnits="userSpaceOnUse">
<stop stop-color="#F1DCA9"/>
<stop offset="1" stop-color="#E4CB89"/>
</linearGradient>
<linearGradient id="paint7_linear_159_513" x1="259.749" y1="125.397" x2="259.749" y2="102.645" gradientUnits="userSpaceOnUse">
<stop stop-color="#F1DCA9"/>
<stop offset="1" stop-color="#E4CB89"/>
</linearGradient>
<linearGradient id="paint8_linear_159_513" x1="259.749" y1="125.397" x2="259.749" y2="102.645" gradientUnits="userSpaceOnUse">
<stop stop-color="#F1DCA9"/>
<stop offset="1" stop-color="#E4CB89"/>
</linearGradient>
<linearGradient id="paint9_linear_159_513" x1="259.749" y1="125.397" x2="259.749" y2="102.645" gradientUnits="userSpaceOnUse">
<stop stop-color="#F1DCA9"/>
<stop offset="1" stop-color="#E4CB89"/>
</linearGradient>
<linearGradient id="paint10_linear_159_513" x1="259.749" y1="125.397" x2="259.749" y2="102.645" gradientUnits="userSpaceOnUse">
<stop stop-color="#F1DCA9"/>
<stop offset="1" stop-color="#E4CB89"/>
</linearGradient>
<linearGradient id="paint11_linear_159_513" x1="259.749" y1="125.397" x2="259.749" y2="102.645" gradientUnits="userSpaceOnUse">
<stop stop-color="#F1DCA9"/>
<stop offset="1" stop-color="#E4CB89"/>
</linearGradient>
<linearGradient id="paint12_linear_159_513" x1="259.749" y1="125.397" x2="259.749" y2="102.645" gradientUnits="userSpaceOnUse">
<stop stop-color="#F1DCA9"/>
<stop offset="1" stop-color="#E4CB89"/>
</linearGradient>
</defs>
</svg>
