<svg width="42" height="43" viewBox="0 0 42 43" fill="none" xmlns="http://www.w3.org/2000/svg">
<path fill-rule="evenodd" clip-rule="evenodd" d="M10.5 2.46875C5.78832 2.46875 1.96875 6.28832 1.96875 11V32C1.96875 36.7117 5.78832 40.5312 10.5 40.5312H31.5C36.2117 40.5312 40.0312 36.7117 40.0312 32V11C40.0312 6.28832 36.2117 2.46875 31.5 2.46875H10.5ZM3.28125 11C3.28125 7.01319 6.51319 3.78125 10.5 3.78125H31.5C35.4868 3.78125 38.7188 7.01319 38.7188 11V32C38.7188 35.9868 35.4868 39.2188 31.5 39.2188H10.5C6.51319 39.2188 3.28125 35.9868 3.28125 32V11ZM16.4062 8.70312C14.4128 8.70312 12.7969 10.3191 12.7969 12.3125V32C12.7969 33.2685 13.8252 34.2969 15.0938 34.2969C16.3623 34.2969 17.3906 33.2685 17.3906 32V23.7969H24.2812C28.4493 23.7969 31.8281 20.418 31.8281 16.25C31.8281 12.082 28.4493 8.70312 24.2812 8.70312H16.4062ZM14.1094 12.3125C14.1094 11.044 15.1377 10.0156 16.4062 10.0156H24.2812C27.7244 10.0156 30.5156 12.8068 30.5156 16.25C30.5156 19.6932 27.7244 22.4844 24.2812 22.4844H16.7344C16.372 22.4844 16.0781 22.7782 16.0781 23.1406V32C16.0781 32.5436 15.6374 32.9844 15.0938 32.9844C14.5501 32.9844 14.1094 32.5436 14.1094 32V12.3125ZM16.7344 11.9844C16.372 11.9844 16.0781 12.2782 16.0781 12.6406V19.8594C16.0781 20.2218 16.372 20.5156 16.7344 20.5156H24.2812C26.6371 20.5156 28.5469 18.6059 28.5469 16.25C28.5469 13.8941 26.6371 11.9844 24.2812 11.9844H16.7344ZM17.3906 19.2031V13.2969H24.2812C25.9122 13.2969 27.2344 14.6191 27.2344 16.25C27.2344 17.8809 25.9122 19.2031 24.2812 19.2031H17.3906Z" fill="url(#paint0_linear_159_411)"/>
<defs>
<linearGradient id="paint0_linear_159_411" x1="27.3927" y1="44.4494" x2="15.1072" y2="42.8554" gradientUnits="userSpaceOnUse">
<stop stop-color="#E4CB89"/>
<stop offset="1" stop-color="#FFEBB7"/>
</linearGradient>
</defs>
</svg>
