<svg width="50" height="51" viewBox="0 0 50 51" fill="none" xmlns="http://www.w3.org/2000/svg">
<path d="M47.2994 16.125C46.3326 16.125 45.3707 16.125 44.4039 16.125C42.8658 16.125 41.3277 16.125 39.7897 16.125C39.4381 16.125 39.0817 16.125 38.7301 16.125C38.3346 16.125 37.9977 16.4619 37.9977 16.8574V18.5713V22.6875V27.6973V32.0088C37.9977 32.707 37.9733 33.4102 37.9977 34.1084V34.1377C37.9977 34.5332 38.3346 34.8701 38.7301 34.8701H41.6256H46.2399H47.2994C47.6803 34.8701 48.0514 34.5332 48.0318 34.1377C48.0123 33.7422 47.7096 33.4053 47.2994 33.4053C46.3326 33.4053 45.3707 33.4053 44.4039 33.4053C42.8658 33.4053 41.3277 33.4053 39.7897 33.4053C39.4381 33.4053 39.0817 33.4053 38.7301 33.4053L39.4625 34.1377C39.4625 33.5664 39.4625 32.9951 39.4625 32.4238C39.4625 31.0518 39.4625 29.6797 39.4625 28.3076C39.4625 26.6377 39.4625 24.9678 39.4625 23.2979C39.4625 21.8623 39.4625 20.4219 39.4625 18.9863C39.4625 18.293 39.5065 17.5801 39.4625 16.8867C39.4625 16.877 39.4625 16.8672 39.4625 16.8574C39.2184 17.1016 38.9742 17.3457 38.7301 17.5898H41.6256H46.2399H47.2994C47.6803 17.5898 48.0514 17.2529 48.0318 16.8574C48.0172 16.4619 47.7096 16.125 47.2994 16.125Z" fill="url(#paint0_linear_159_373)"/>
<path d="M2.69996 34.875H5.59547H10.2097H11.2693C11.6648 34.875 12.0017 34.5381 12.0017 34.1426C12.0017 33.5713 12.0017 33 12.0017 32.4287C12.0017 31.0566 12.0017 29.6846 12.0017 28.3125C12.0017 26.6426 12.0017 24.9727 12.0017 23.3027C12.0017 21.8672 12.0017 20.4268 12.0017 18.9912C12.0017 18.293 12.0261 17.5898 12.0017 16.8916C12.0017 16.8818 12.0017 16.8721 12.0017 16.8623C12.0017 16.4668 11.6648 16.1299 11.2693 16.1299C10.3025 16.1299 9.34058 16.1299 8.37379 16.1299C6.8357 16.1299 5.29761 16.1299 3.75953 16.1299C3.40797 16.1299 3.05152 16.1299 2.69996 16.1299C2.3191 16.1299 1.948 16.4668 1.96754 16.8623C1.98707 17.2578 2.2898 17.5947 2.69996 17.5947H5.59547H10.2097H11.2693C11.0252 17.3506 10.781 17.1064 10.5369 16.8623V18.5762V22.6924V27.7021V32.0137C10.5369 32.707 10.4929 33.4199 10.5369 34.1133V34.1426L11.2693 33.4102C10.3025 33.4102 9.34058 33.4102 8.37379 33.4102C6.8357 33.4102 5.29761 33.4102 3.75953 33.4102C3.40797 33.4102 3.05152 33.4102 2.69996 33.4102C2.3191 33.4102 1.948 33.7471 1.96754 34.1426C1.98218 34.5381 2.2898 34.875 2.69996 34.875Z" fill="url(#paint1_linear_159_373)"/>
<path d="M15.625 3.2002V6.09571V10.71V11.7695C15.625 12.165 15.9619 12.502 16.3574 12.502H18.0713H22.1875H27.1973H31.5088C32.207 12.502 32.9102 12.5264 33.6084 12.502H33.6377C34.0332 12.502 34.3701 12.165 34.3701 11.7695C34.3701 10.8027 34.3701 9.84083 34.3701 8.87403C34.3701 7.33594 34.3701 5.79786 34.3701 4.25977C34.3701 3.90821 34.3701 3.55176 34.3701 3.2002C34.3701 2.81934 34.0332 2.44825 33.6377 2.46778C33.2422 2.48731 32.9053 2.79005 32.9053 3.2002V6.09571V10.71V11.7695C33.1494 11.5254 33.3936 11.2813 33.6377 11.0371C33.0664 11.0371 32.4951 11.0371 31.9238 11.0371C30.5518 11.0371 29.1797 11.0371 27.8076 11.0371C26.1377 11.0371 24.4678 11.0371 22.7979 11.0371C21.3623 11.0371 19.9219 11.0371 18.4863 11.0371C17.793 11.0371 17.0801 10.9932 16.3867 11.0371C16.377 11.0371 16.3672 11.0371 16.3574 11.0371L17.0898 11.7695C17.0898 10.8027 17.0898 9.84083 17.0898 8.87403C17.0898 7.33594 17.0898 5.79786 17.0898 4.25977C17.0898 3.90821 17.0898 3.55176 17.0898 3.2002C17.0898 2.81934 16.7529 2.44825 16.3574 2.46778C15.9619 2.48243 15.625 2.79005 15.625 3.2002Z" fill="url(#paint2_linear_159_373)"/>
<path d="M34.375 47.7999C34.375 46.8331 34.375 45.8712 34.375 44.9044C34.375 43.3663 34.375 41.8282 34.375 40.2901C34.375 39.9386 34.375 39.5821 34.375 39.2306C34.375 38.8351 34.0381 38.4982 33.6426 38.4982C33.0713 38.4982 32.5 38.4982 31.9287 38.4982C30.5566 38.4982 29.1846 38.4982 27.8125 38.4982C26.1426 38.4982 24.4727 38.4982 22.8027 38.4982C21.3672 38.4982 19.9268 38.4982 18.4912 38.4982C17.793 38.4982 17.0898 38.4737 16.3916 38.4982C16.3818 38.4982 16.3721 38.4982 16.3623 38.4982C15.9668 38.4982 15.6299 38.8351 15.6299 39.2306V42.1261V46.7403V47.7999C15.6299 48.1808 15.9668 48.5519 16.3623 48.5323C16.7578 48.5128 17.0947 48.2101 17.0947 47.7999C17.0947 46.8331 17.0947 45.8712 17.0947 44.9044C17.0947 43.3663 17.0947 41.8282 17.0947 40.2901C17.0947 39.9386 17.0947 39.5821 17.0947 39.2306C16.8506 39.4747 16.6064 39.7189 16.3623 39.963H18.0762H22.1924H27.2021H31.5137C32.207 39.963 32.9199 40.0069 33.6133 39.963H33.6426C33.3984 39.7189 33.1543 39.4747 32.9102 39.2306V42.1261V46.7403V47.7999C32.9102 48.1808 33.2471 48.5519 33.6426 48.5323C34.0381 48.5177 34.375 48.2101 34.375 47.7999Z" fill="url(#paint3_linear_159_373)"/>
<path d="M10.5367 13.6201V16.3154V22.5996V29.9433V35.666V37.1357V37.375C10.5513 38.2734 11.0005 39.0986 11.7623 39.5771C12.3189 39.9287 12.9244 39.9629 13.5494 39.9629H15.2291H21.2496H28.564H34.6529H36.396C36.9576 39.9629 37.4849 39.9482 38.0171 39.6992C38.9058 39.2793 39.4527 38.3467 39.4673 37.375C39.4673 37.3066 39.4673 37.2431 39.4673 37.1748C39.4673 36.706 39.4673 36.2373 39.4673 35.7685C39.4673 33.8886 39.4673 32.0039 39.4673 30.124C39.4673 27.6777 39.4673 25.2314 39.4673 22.79C39.4673 20.6758 39.4673 18.5615 39.4673 16.4472C39.4673 15.5049 39.482 14.5674 39.4673 13.625C39.4429 12.1699 38.271 11.042 36.8209 11.0371C36.4595 11.0371 36.0933 11.0371 35.732 11.0371C33.9644 11.0371 32.1968 11.0371 30.4293 11.0371C28.022 11.0371 25.6099 11.0371 23.2027 11.0371C20.9908 11.0371 18.7789 11.0371 16.5669 11.0371C15.4439 11.0371 14.3209 11.0322 13.1929 11.0371C11.7378 11.042 10.5611 12.1601 10.5367 13.6201C10.5318 14.001 10.8785 14.372 11.2691 14.3525C11.6695 14.333 11.9918 14.0302 12.0015 13.6201C12.0015 13.5615 12.0064 13.5078 12.0113 13.4492C12.021 13.3271 11.9625 13.6054 12.021 13.415C12.0455 13.332 12.065 13.249 12.0943 13.166C12.0455 13.2978 12.0943 13.1709 12.1138 13.1367C12.1382 13.0927 12.1626 13.0439 12.1919 13C12.2164 12.9658 12.2359 12.9267 12.2652 12.8974C12.1724 13.0244 12.2994 12.8633 12.314 12.8535C12.3433 12.8242 12.3775 12.7949 12.4068 12.7656C12.5435 12.624 12.3384 12.8095 12.4312 12.7412C12.5093 12.6875 12.5923 12.6386 12.6753 12.5947C12.7925 12.5263 12.7095 12.5801 12.6753 12.5898C12.7242 12.5703 12.7779 12.5556 12.8316 12.541C12.8853 12.5263 12.939 12.5166 12.9927 12.5019C12.8658 12.5263 13.0123 12.5019 13.0611 12.497C13.1392 12.4922 13.2173 12.497 13.2955 12.497H14.6236H20.0923H27.2896H33.691C34.7408 12.497 35.7906 12.4922 36.8453 12.497H36.9576C37.0015 12.497 37.0455 12.5019 37.0894 12.5068C36.9478 12.4922 37.0601 12.5019 37.0894 12.5117C37.1431 12.5263 37.1968 12.541 37.2457 12.5556C37.2798 12.5654 37.4117 12.6191 37.2798 12.5605C37.358 12.5947 37.4312 12.6386 37.5044 12.6826C37.4996 12.6826 37.6656 12.7998 37.5875 12.7363C37.524 12.6826 37.6656 12.8095 37.6802 12.8242C37.7193 12.8633 37.7535 12.9023 37.7877 12.9414C37.7681 12.917 37.7144 12.8291 37.7877 12.9463C37.8365 13.0293 37.8902 13.1074 37.9293 13.1953C37.9781 13.2978 37.8902 13.039 37.939 13.2295C37.9488 13.2734 37.9634 13.3125 37.9781 13.3564C37.9878 13.4004 37.9976 13.4394 38.0074 13.4834C37.9732 13.3271 38.0074 13.5176 38.0123 13.5517V13.664V14.6797V19.7676V26.8916V33.542V37.2138C38.0123 37.3017 38.0123 37.3945 38.0074 37.4824C38.0074 37.5215 37.9781 37.6631 38.0074 37.5215C37.9976 37.5654 37.9878 37.6094 37.9781 37.6484C37.9683 37.6924 37.9537 37.7314 37.939 37.7754C37.8902 37.9658 37.9781 37.7021 37.9293 37.8095C37.8853 37.8974 37.8365 37.9756 37.7877 38.0586C37.7144 38.1758 37.7681 38.083 37.7877 38.0635C37.7437 38.1123 37.7046 38.1562 37.6558 38.2002C37.6607 38.1953 37.5044 38.332 37.5875 38.2685C37.6705 38.2051 37.5044 38.3222 37.5044 38.3222C37.4312 38.3662 37.358 38.4101 37.2798 38.4443C37.4117 38.3857 37.2798 38.4394 37.2457 38.4492C37.1919 38.4638 37.1382 38.4736 37.0894 38.4931C37.0601 38.5029 36.9478 38.5127 37.0894 38.498C37.021 38.5029 36.9527 38.5078 36.8892 38.5078C36.6548 38.5127 36.4205 38.5078 36.1861 38.5078C34.6285 38.5078 33.066 38.5078 31.5084 38.5078C29.1793 38.5078 26.8501 38.5078 24.521 38.5078C22.2408 38.5078 19.9605 38.5078 17.6802 38.5078C16.2886 38.5078 14.897 38.5078 13.5005 38.5078C13.3882 38.5078 13.2808 38.5078 13.1685 38.5078C13.1099 38.5078 13.0513 38.5078 12.9927 38.5029C12.8462 38.498 12.9585 38.498 12.9878 38.5029C12.9341 38.4931 12.8804 38.4785 12.8267 38.4638C12.773 38.4492 12.7242 38.4345 12.6705 38.415C12.6998 38.4248 12.7876 38.4785 12.6705 38.4101C12.5875 38.3613 12.5044 38.3174 12.4263 38.2636C12.3335 38.1953 12.5337 38.3808 12.4019 38.2392C12.358 38.1953 12.314 38.1465 12.2701 38.1074C12.2505 38.0879 12.1822 38 12.2652 38.1074C12.2408 38.0732 12.2164 38.039 12.1919 38.0049C12.1626 37.9609 12.1382 37.9121 12.1138 37.8681C12.0943 37.834 12.0503 37.7021 12.0943 37.8388C12.065 37.7558 12.0455 37.6728 12.021 37.5898C11.9625 37.3994 12.021 37.6777 12.0113 37.5556C12.0064 37.497 12.0064 37.4433 12.0015 37.3847C12.0015 37.3701 12.0015 37.3554 12.0015 37.3359C12.0015 37.2138 12.0015 37.0918 12.0015 36.9697C12.0015 35.5586 12.0015 34.1474 12.0015 32.7363C12.0015 30.456 12.0015 28.1758 12.0015 25.8955C12.0015 23.5713 12.0015 21.247 12.0015 18.9228C12.0015 17.375 12.0015 15.832 12.0015 14.2842C12.0015 14.0644 12.0015 13.8447 12.0015 13.6299C12.0015 13.249 11.6646 12.8779 11.2691 12.8974C10.8687 12.9072 10.5367 13.2099 10.5367 13.6201Z" fill="url(#paint4_linear_159_373)"/>
<path d="M29.0766 30.7001C27.9096 30.7001 26.7475 30.7001 25.5805 30.7001C24.101 30.7001 22.6166 30.7001 21.1371 30.7001C21.0785 30.7001 21.02 30.7001 20.9614 30.7001C20.9467 30.7001 20.9369 30.7001 20.9223 30.7001C20.8686 30.7001 20.6391 30.6659 20.7807 30.6952C20.7172 30.6806 20.6537 30.6708 20.5903 30.6513C20.5463 30.6415 20.5073 30.6268 20.4682 30.6122C20.478 30.6171 20.5707 30.661 20.4975 30.622C20.4291 30.5878 20.3657 30.5536 20.3022 30.5145C20.2729 30.4999 20.2485 30.4804 20.2241 30.4608C20.1606 30.4169 20.2924 30.5341 20.1996 30.4364C20.1508 30.3827 20.0971 30.3339 20.0434 30.2802C19.9848 30.2216 20.0532 30.2948 20.058 30.3046C20.0336 30.2704 20.0092 30.2362 19.9848 30.202C19.9506 30.1483 19.9213 30.0897 19.892 30.036C19.8237 29.9188 19.8774 30.0018 19.8871 30.036C19.8725 29.997 19.8578 29.953 19.8481 29.914C19.8383 29.8749 19.7944 29.6893 19.8041 29.7528C19.8188 29.8358 19.8041 29.7284 19.8041 29.7186C19.8041 29.6747 19.7993 29.6307 19.7993 29.5819C19.7993 29.577 19.7993 29.5673 19.7993 29.5624C19.7993 29.5136 19.7993 29.4647 19.7993 29.4159C19.7993 29.1913 19.7993 28.9667 19.7993 28.7421C19.7993 27.0722 19.7993 25.4022 19.7993 23.7323C19.7993 23.0829 19.7993 22.4286 19.7993 21.7792C19.7993 21.662 19.7993 21.5448 19.7993 21.4276C19.7993 21.413 19.7993 21.4032 19.7993 21.3886C19.7993 21.3544 19.8188 21.1835 19.8041 21.2518C19.7895 21.3251 19.8334 21.1249 19.8481 21.0907C19.8578 21.0517 19.8725 21.0077 19.8871 20.9686C19.8627 21.037 19.8578 21.0272 19.892 20.9686C19.9262 20.9052 19.9653 20.8368 20.0043 20.7733C20.019 20.7489 20.0385 20.7196 20.058 20.6952C20.0385 20.7245 19.9702 20.7831 20.0629 20.6952C20.1069 20.6513 20.1557 20.6073 20.1948 20.5634C20.2827 20.4706 20.2241 20.539 20.1948 20.5585C20.2289 20.5341 20.2631 20.5097 20.2973 20.4852C20.3608 20.4462 20.4243 20.412 20.4926 20.3778C20.5903 20.329 20.3901 20.412 20.4975 20.3778C20.5268 20.3681 20.561 20.3583 20.5903 20.3485C20.6244 20.3388 20.8198 20.2948 20.7514 20.3046C20.6684 20.3192 20.7758 20.3046 20.7856 20.3046C20.8295 20.3046 20.8735 20.2997 20.9223 20.2997H21.0004H21.5571H23.7494H28.559H29.0375H29.0717C29.1303 20.2997 29.3549 20.3339 29.2133 20.3046C29.2866 20.3192 29.3598 20.3388 29.433 20.3583C29.4623 20.3681 29.4965 20.3778 29.5258 20.3876C29.3989 20.3436 29.5014 20.3729 29.5258 20.3925C29.5893 20.4266 29.6577 20.4657 29.7211 20.5048C29.7455 20.5194 29.7748 20.539 29.7993 20.5585C29.7407 20.5145 29.7553 20.5194 29.7993 20.5634C29.8481 20.6171 29.9018 20.6659 29.9555 20.7196C30.0336 20.7977 29.8969 20.6317 29.9604 20.7196C29.9799 20.744 29.9946 20.7733 30.0141 20.7977C30.0532 20.8612 30.0873 20.9247 30.1215 20.9931C30.1606 21.0663 30.1166 20.9784 30.1118 20.9638C30.1313 21.0126 30.1459 21.0663 30.1606 21.12C30.1703 21.1591 30.2045 21.369 30.1899 21.2177C30.1996 21.286 30.1996 21.3544 30.1996 21.4179V21.4374V21.872V26.6278V28.869V29.4696V29.5722C30.1996 29.621 30.1655 29.8554 30.1948 29.7138C30.1801 29.787 30.1606 29.8602 30.141 29.9335C30.1313 29.9628 30.1215 29.997 30.1118 30.0263C30.1459 29.9286 30.1215 30.0018 30.0922 30.0556C30.058 30.119 30.019 30.1825 29.9799 30.246C29.9116 30.3583 30.0287 30.2069 29.936 30.2948C29.8823 30.3436 29.8334 30.4022 29.7797 30.4511C29.7211 30.5048 29.7944 30.4413 29.8041 30.4364C29.77 30.4608 29.7358 30.4852 29.7016 30.5097C29.6381 30.5487 29.5746 30.5829 29.5063 30.6171C29.433 30.6561 29.5209 30.6122 29.5356 30.6073C29.5063 30.6171 29.477 30.6317 29.4428 30.6366C29.3696 30.6561 29.2963 30.6757 29.2231 30.6903C29.3647 30.6659 29.1205 30.7001 29.0766 30.7001C28.6957 30.705 28.3246 31.0321 28.3442 31.4325C28.3637 31.8231 28.6664 32.1747 29.0766 32.1649C30.5121 32.1405 31.6498 30.9882 31.6645 29.5526C31.6694 29.0839 31.6645 28.6151 31.6645 28.1415C31.6645 26.3641 31.6645 24.5868 31.6645 22.8143C31.6645 22.3554 31.6694 21.8964 31.6645 21.4374C31.645 20.0067 30.5121 18.8544 29.0766 18.83C27.8217 18.8104 26.5668 18.83 25.3168 18.83C23.8764 18.83 22.4409 18.8251 21.0004 18.83C19.7895 18.8349 18.642 19.6308 18.3979 20.8563C18.3002 21.3397 18.3344 21.8475 18.3344 22.3358V27.5946V29.4061C18.3344 30.4511 18.8227 31.4618 19.8139 31.911C20.4096 32.1796 20.9955 32.1649 21.6254 32.1649H23.9594H28.7739H29.0766C29.4575 32.1649 29.8285 31.828 29.809 31.4325C29.7944 31.037 29.4868 30.7001 29.0766 30.7001Z" fill="url(#paint5_linear_159_373)"/>
<path d="M25.7324 45.8467C25.7324 43.918 25.7324 41.9844 25.7324 40.0557C25.7324 39.7822 25.7324 39.5088 25.7324 39.2305C25.7324 38.8496 25.3955 38.4785 25 38.4981C24.6045 38.5176 24.2676 38.8203 24.2676 39.2305V45.0215V45.8467C24.2676 46.2275 24.6045 46.5986 25 46.5791C25.3955 46.5645 25.7324 46.2568 25.7324 45.8467Z" fill="url(#paint6_linear_159_373)"/>
<path d="M25.7324 11.7695C25.7324 9.84083 25.7324 7.90723 25.7324 5.97852C25.7324 5.70508 25.7324 5.43165 25.7324 5.15333C25.7324 4.77247 25.3955 4.40137 25 4.4209C24.6045 4.44044 24.2676 4.74317 24.2676 5.15333V10.9443V11.7695C24.2676 12.1504 24.6045 12.5215 25 12.502C25.3955 12.4824 25.7324 12.1797 25.7324 11.7695Z" fill="url(#paint7_linear_159_373)"/>
<path d="M45.3464 24.7676C43.4177 24.7676 41.4841 24.7676 39.5554 24.7676C39.282 24.7676 39.0086 24.7676 38.7302 24.7676C38.3494 24.7676 37.9783 25.1045 37.9978 25.5C38.0173 25.8955 38.3201 26.2324 38.7302 26.2324H44.5212H45.3464C45.7273 26.2324 46.0984 25.8955 46.0789 25.5C46.0642 25.1045 45.7566 24.7676 45.3464 24.7676Z" fill="url(#paint8_linear_159_373)"/>
<path d="M11.2693 24.7676C9.34058 24.7676 7.40699 24.7676 5.47828 24.7676C5.20484 24.7676 4.9314 24.7676 4.65308 24.7676C4.27222 24.7676 3.90113 25.1045 3.92066 25.5C3.94019 25.8955 4.24293 26.2324 4.65308 26.2324H10.4441H11.2693C11.6502 26.2324 12.0212 25.8955 12.0017 25.5C11.9822 25.1045 11.6794 24.7676 11.2693 24.7676Z" fill="url(#paint9_linear_159_373)"/>
<defs>
<linearGradient id="paint0_linear_159_373" x1="44.6969" y1="36.7998" x2="41.4157" y2="36.5716" gradientUnits="userSpaceOnUse">
<stop stop-color="#E4CB89"/>
<stop offset="1" stop-color="#FFEBB7"/>
</linearGradient>
<linearGradient id="paint1_linear_159_373" x1="8.67691" y1="36.8046" x2="5.39567" y2="36.5765" gradientUnits="userSpaceOnUse">
<stop stop-color="#E4CB89"/>
<stop offset="1" stop-color="#FFEBB7"/>
</linearGradient>
<linearGradient id="paint2_linear_159_373" x1="28.1459" y1="13.5469" x2="22.3342" y2="12.1399" gradientUnits="userSpaceOnUse">
<stop stop-color="#E4CB89"/>
<stop offset="1" stop-color="#FFEBB7"/>
</linearGradient>
<linearGradient id="paint3_linear_159_373" x1="28.1508" y1="49.5672" x2="22.3391" y2="48.1602" gradientUnits="userSpaceOnUse">
<stop stop-color="#E4CB89"/>
<stop offset="1" stop-color="#FFEBB7"/>
</linearGradient>
<linearGradient id="paint4_linear_159_373" x1="29.8653" y1="42.9407" x2="20.5253" y2="41.7285" gradientUnits="userSpaceOnUse">
<stop stop-color="#E4CB89"/>
<stop offset="1" stop-color="#FFEBB7"/>
</linearGradient>
<linearGradient id="paint5_linear_159_373" x1="27.2378" y1="33.5388" x2="22.9326" y2="32.9804" gradientUnits="userSpaceOnUse">
<stop stop-color="#E4CB89"/>
<stop offset="1" stop-color="#FFEBB7"/>
</linearGradient>
<linearGradient id="paint6_linear_159_373" x1="25.246" y1="47.4119" x2="24.7655" y2="47.4006" gradientUnits="userSpaceOnUse">
<stop stop-color="#E4CB89"/>
<stop offset="1" stop-color="#FFEBB7"/>
</linearGradient>
<linearGradient id="paint7_linear_159_373" x1="25.246" y1="13.3347" x2="24.7655" y2="13.3234" gradientUnits="userSpaceOnUse">
<stop stop-color="#E4CB89"/>
<stop offset="1" stop-color="#FFEBB7"/>
</linearGradient>
<linearGradient id="paint8_linear_159_373" x1="43.3958" y1="26.3832" x2="41.642" y2="25.1276" gradientUnits="userSpaceOnUse">
<stop stop-color="#E4CB89"/>
<stop offset="1" stop-color="#FFEBB7"/>
</linearGradient>
<linearGradient id="paint9_linear_159_373" x1="9.31868" y1="26.3832" x2="7.56482" y2="25.1276" gradientUnits="userSpaceOnUse">
<stop stop-color="#E4CB89"/>
<stop offset="1" stop-color="#FFEBB7"/>
</linearGradient>
</defs>
</svg>
