<svg width="265" height="198" viewBox="0 0 265 198" fill="none" xmlns="http://www.w3.org/2000/svg">
<path d="M180.418 71.974L108.474 179.935H156.436L144.445 197.928H168.427L216.391 125.954L204.4 107.961L168.427 161.942H144.445L192.409 89.9671L180.418 71.974ZM180.418 73.9258L191.108 89.9671L143.545 161.341L142.424 163.024H144.445H168.427H169.006L169.328 162.541L204.4 109.912L215.09 125.954L167.848 196.845H146.468L157.337 180.535L158.459 178.852H156.436H110.495L180.418 73.9258Z" fill="#F1DCA9"/>
<path d="M228.383 143.948L192.41 197.928H264.356L228.383 143.948ZM228.383 145.9L262.333 196.846H194.433L228.383 145.9Z" fill="#F1DCA9"/>
<path d="M36.5294 179.935L108.474 71.9739H132.456L60.5113 179.935H36.5294ZM168.429 53.9808H96.483L0.556641 197.928H72.5022L168.429 53.9808ZM34.508 181.017H36.5294H60.5113H61.0902L61.4116 180.535L133.356 72.5747L134.478 70.8913H132.456H108.474H107.895L107.574 71.3731L35.6291 179.334L34.508 181.017ZM166.406 55.0634L71.9222 196.845H2.57912L97.063 55.0634H166.406Z" fill="#F1DCA9"/>
<path d="M108.474 35.9873H156.436L132.455 2.28882e-05L108.474 35.9873Z" fill="#F1DCA9"/>
</svg>
