<svg width="23" height="24" viewBox="0 0 23 24" fill="none" xmlns="http://www.w3.org/2000/svg">
<path d="M1.82534 13.7011L5.51324 14.5411L7.19983 12.266C7.22582 12.2313 7.2612 12.2047 7.30184 12.1893C7.34248 12.1739 7.38668 12.1704 7.42926 12.1791C7.47184 12.1878 7.51102 12.2085 7.54224 12.2386C7.57346 12.2688 7.5954 12.3071 7.6055 12.3492C7.75229 12.9593 8.03085 13.5301 8.42175 14.0219L8.98476 14.7346C9.04846 14.8153 9.08014 14.9166 9.07379 15.0191C9.06744 15.1216 9.02352 15.2182 8.95034 15.2905L7.14082 17.093C6.96946 17.2896 6.74757 17.4362 6.49897 17.5169C6.25036 17.5977 5.9844 17.6093 5.72959 17.5509L1.12465 16.5004C0.927685 16.4554 0.742351 16.3699 0.58056 16.2492C0.41877 16.1287 0.284102 15.9756 0.185213 15.8001C0.0863422 15.6247 0.0254363 15.4305 0.00641935 15.23C-0.0125804 15.0296 0.0107046 14.8275 0.0748288 14.6366C0.200014 14.2935 0.447768 14.0084 0.770713 13.8358C1.09366 13.6633 1.46913 13.6153 1.82534 13.7011ZM17.7398 5.26915C18.4306 5.42431 19.155 5.30031 19.7541 4.92432C20.3532 4.54834 20.7783 3.95105 20.9361 3.26341C21.0545 2.74877 21.0171 2.21067 20.8283 1.71728C20.6395 1.22388 20.3081 0.797395 19.8758 0.491858C19.4434 0.186321 18.9297 0.015492 18.3998 0.00100627C17.8699 -0.0134949 17.3478 0.129012 16.8993 0.410464C16.4508 0.691915 16.0963 1.09964 15.8806 1.58197C15.665 2.0643 15.5979 2.59956 15.6879 3.11989C15.7779 3.64023 16.0209 4.12224 16.3863 4.50487C16.7515 4.88748 17.2227 5.15347 17.7398 5.26915ZM9.42731 2.46749C9.22141 2.40041 9.00092 2.39122 8.79012 2.4409C8.5793 2.4906 8.38634 2.59724 8.23244 2.74911L5.13953 5.79079C4.91661 6.00394 4.78244 6.2929 4.76376 6.60015C4.74507 6.90739 4.84326 7.21037 5.03873 7.44878C5.14541 7.5713 5.27621 7.67071 5.42301 7.74087C5.56981 7.81102 5.72952 7.85042 5.89222 7.85661C6.05492 7.86281 6.21718 7.83567 6.36894 7.77691C6.52069 7.71813 6.65873 7.62895 6.77449 7.5149L9.37568 4.95812L11.4999 6.06262L9.32405 9.3737C8.97688 9.95841 8.81593 10.6343 8.86247 11.312C8.909 11.9897 9.16082 12.6375 9.58467 13.1697L12.7169 17.1444L10.5165 21.898C10.3743 22.188 10.331 22.5165 10.3931 22.8334C10.4552 23.1502 10.6194 23.4382 10.8607 23.6539C11.0447 23.8085 11.2643 23.9153 11.4999 23.9649C11.555 23.9772 11.6109 23.9863 11.6671 23.9918C11.9695 24.024 12.2744 23.9609 12.539 23.8116C12.8035 23.6623 13.0145 23.4341 13.1423 23.1592L15.7115 17.5461C15.8235 17.3105 15.8683 17.0489 15.8409 16.7897C15.8135 16.5305 15.7153 16.2838 15.5566 16.0766L13.57 12.3615L15.4091 9.16063L16.336 11.0513C16.4056 11.2344 16.5197 11.3974 16.6682 11.5257C16.8165 11.6539 16.9948 11.7434 17.1867 11.786L17.2998 11.8056L21.6563 12.3688C21.816 12.393 21.9788 12.3836 22.1347 12.3415C22.2905 12.2993 22.4357 12.2252 22.5612 12.1239C22.6872 12.0228 22.7911 11.8969 22.8665 11.7541C22.9417 11.6113 22.9868 11.4546 22.9987 11.2937C23.0131 10.9831 22.9083 10.6786 22.7056 10.4421C22.5029 10.2055 22.2173 10.0547 21.9071 10.0202L18.3152 9.55246L17.3194 7.10345C17.0914 6.54192 16.7022 6.05978 16.2008 5.71731C14.2282 4.36887 12.069 3.31371 9.79118 2.58504L9.42731 2.46749Z" fill="#0060FE"/>
</svg>
