<svg width="757" height="70" viewBox="0 0 757 70" fill="none" xmlns="http://www.w3.org/2000/svg">
<path d="M90.4801 3.27256V4.02169C89.1567 4.28692 87.9804 4.78056 86.9513 5.50045C85.9211 6.22035 84.9072 7.41441 83.9073 9.07396C82.9074 10.7368 81.8632 13.1433 80.7757 16.2913L62.5561 69.9999H61.8938L45.3071 16.2913H45.0864L27.0421 69.9999H26.3809L7.8962 10.7746C7.21988 8.6864 6.41154 7.16975 5.4701 6.22901C4.52974 5.28719 3.66945 4.70586 2.89033 4.48394C2.11121 4.26418 1.14704 4.10938 0 4.02169V3.27256H20.1609V4.02169C18.396 4.1386 17.065 4.67014 16.1679 5.60979C15.2708 6.55269 14.8228 7.71427 14.8228 9.09669C14.8228 10.1554 15.0728 11.4794 15.5727 13.0697L29.2929 56.9812H29.4693L44.2034 13.0697L43.5855 11.0821C42.9968 9.1703 42.1149 7.54647 40.9397 6.20736C39.7624 4.86716 37.9249 4.1386 35.4252 4.02169V3.27256H56.203V4.02169C53.8504 4.05092 52.3268 4.65498 51.6364 5.83063C50.946 7.00845 50.6008 8.09641 50.6008 9.09669C50.6008 10.3622 50.8216 11.6851 51.262 13.0697L64.8047 56.9812H64.9822L78.79 16.2913C79.2012 15.2034 79.5767 13.9227 79.9154 12.4504C80.253 10.9814 80.4218 9.7289 80.4218 8.69939C80.4218 6.69884 79.9879 5.44849 79.12 4.94835C78.2522 4.44821 76.8487 4.1386 74.9073 4.02169V3.27256H90.4801Z" fill="#F1DCA9"/>
<path d="M172.42 33.0163V11.2592C172.42 9.14168 171.846 7.40527 170.699 6.05208C169.552 4.69889 167.773 4.02121 165.361 4.02121V3.27209H186.051V4.02121C183.639 4.02121 181.875 4.69023 180.757 6.02934C179.639 7.36846 179.081 9.11245 179.081 11.2592V60.4221C179.081 65.1897 181.404 67.5724 186.051 67.5724V68.2793H165.361V67.5724C167.566 67.5724 169.294 66.9781 170.544 65.7862C171.795 64.5932 172.42 62.8362 172.42 60.512V35.0038H135.186V60.4221C135.186 62.6879 135.827 64.4471 137.106 65.6963C138.385 66.9488 140.098 67.5724 142.245 67.5724V68.2793H121.555V67.5724C123.789 67.5724 125.503 66.9488 126.695 65.6963C127.885 64.4471 128.481 62.6879 128.481 60.4221V11.2592C128.481 6.43314 126.172 4.02121 121.555 4.02121V3.27209H142.245V4.02121C139.803 4.02121 138.016 4.69023 136.885 6.02934C135.752 7.36846 135.186 9.11245 135.186 11.2592V33.0163H172.42Z" fill="#F1DCA9"/>
<path d="M240.067 3.27251V4.02164C238.124 4.02164 236.477 4.56725 235.126 5.65521C233.772 6.74318 233.096 8.5532 233.096 11.082V60.4226C233.096 62.9243 233.816 64.7409 235.258 65.8743C236.698 67.0066 238.302 67.5728 240.067 67.5728V68.2797H219.464V67.5728C221.346 67.5728 222.971 67.0207 224.339 65.9187C225.706 64.8156 226.391 62.9828 226.391 60.4226V11.082C226.391 8.37675 225.706 6.52341 224.339 5.52314C222.971 4.52178 221.346 4.02164 219.464 4.02164V3.27251H240.067Z" fill="#F1DCA9"/>
<path d="M329.195 15.9369H328.489C328.166 11.7008 326.93 8.95765 324.784 7.7073C322.636 6.45587 319.989 5.83015 316.843 5.83015H303.917V60.4221C303.917 65.0446 306.269 67.4262 310.975 67.5724V68.2793H290.285V67.5724C292.227 67.5139 293.866 66.9488 295.205 65.8739C296.542 64.8 297.212 62.9824 297.212 60.4221V5.83015H284.286C281.139 5.83015 278.5 6.45587 276.367 7.7073C274.234 8.95765 272.993 11.7008 272.639 15.9369H271.934V0.0482483H272.639C273.11 0.784386 273.522 1.32999 273.874 1.68182C274.228 2.03581 274.683 2.33676 275.242 2.58791C275.8 2.8369 276.456 3.01444 277.206 3.11728C277.956 3.22121 278.845 3.27209 279.874 3.27209H321.96C324.754 3.27209 326.93 2.1982 328.489 0.0482483H329.195V15.9369Z" fill="#F1DCA9"/>
<path d="M361.023 4.02187V3.27274H399.756V13.5093H399.139C399.139 8.03814 395.492 5.30036 388.198 5.30036H374.655V34.827H386.566C388.918 34.827 391.021 34.4459 392.874 33.6784C394.727 32.913 395.785 31.1636 396.05 28.4258H396.713V43.168H396.05C395.785 41.4901 395.285 40.204 394.551 39.3044C393.815 38.4102 393.088 37.8126 392.367 37.5193C391.645 37.2248 391.007 37.0776 390.448 37.0776C389.39 36.9 388.286 36.8124 387.139 36.8124H374.655V59.8934C374.655 61.6298 374.986 63.1303 375.647 64.3958C376.308 65.6613 377.846 66.2935 380.257 66.2935H389.919C392.241 66.2935 394.154 65.9546 395.653 65.277C397.153 64.6025 398.337 63.6596 399.205 62.4526C400.072 61.2477 400.8 59.7927 401.389 58.0845H402.006L399.756 68.2789H361.023V67.573H361.905C363.287 67.573 364.641 67.0144 365.963 65.8962C367.288 64.7768 367.95 62.9538 367.95 60.4228V11.4363C367.95 9.43571 367.5 7.6993 366.604 6.22919C365.706 4.75801 364.141 4.02187 361.905 4.02187H361.023Z" fill="#F1DCA9"/>
<path d="M542.192 33.0163V11.2592C542.192 9.14168 541.62 7.40527 540.473 6.05208C539.324 4.69889 537.545 4.02121 535.133 4.02121V3.27209H555.823V4.02121C553.411 4.02121 551.648 4.69023 550.53 6.02934C549.412 7.36846 548.854 9.11245 548.854 11.2592V60.4221C548.854 65.1897 551.177 67.5724 555.823 67.5724V68.2793H535.133V67.5724C537.339 67.5724 539.067 66.9781 540.318 65.7862C541.568 64.5932 542.192 62.8362 542.192 60.512V35.0038H504.959V60.4221C504.959 62.6879 505.599 64.4471 506.878 65.6963C508.157 66.9488 509.87 67.5724 512.017 67.5724V68.2793H491.327V67.5724C493.562 67.5724 495.276 66.9488 496.467 65.6963C497.659 64.4471 498.254 62.6879 498.254 60.4221V11.2592C498.254 6.43314 495.945 4.02121 491.327 4.02121V3.27209H512.017V4.02121C509.576 4.02121 507.789 4.69023 506.657 6.02934C505.525 7.36846 504.959 9.11245 504.959 11.2592V33.0163H542.192Z" fill="#F1DCA9"/>
<path d="M609.842 3.27251V4.02164C607.899 4.02164 606.252 4.56725 604.9 5.65521C603.547 6.74318 602.871 8.5532 602.871 11.082V60.4226C602.871 62.9243 603.591 64.7409 605.033 65.8743C606.473 67.0066 608.077 67.5728 609.842 67.5728V68.2797H589.239V67.5728C591.121 67.5728 592.746 67.0207 594.114 65.9187C595.481 64.8156 596.166 62.9828 596.166 60.4226V11.082C596.166 8.37675 595.481 6.52341 594.114 5.52314C592.746 4.52178 591.121 4.02164 589.239 4.02164V3.27251H609.842Z" fill="#F1DCA9"/>
<path d="M643.605 67.5724H644.487C646.076 67.5724 647.481 66.9488 648.7 65.6963C649.921 64.4471 650.532 62.6879 650.532 60.4221V11.3468C650.532 8.64046 649.847 6.75899 648.48 5.69809C647.113 4.63827 645.487 4.07967 643.605 4.02121V3.27209H664.384V4.02121C662.56 4.07967 660.943 4.62528 659.531 5.65479C658.12 6.68429 657.414 8.58308 657.414 11.3468V58.7918C657.414 61.6162 658.12 63.5724 659.531 64.6603C660.943 65.7483 663.251 66.2939 666.458 66.2939H672.061C674.5 66.2939 676.449 65.9994 677.905 65.4095C679.361 64.8216 680.514 63.9242 681.368 62.7171C682.222 61.5123 683.09 59.8051 683.971 57.5978H684.72L682.25 68.2793H643.605V67.5724Z" fill="#F1DCA9"/>
<path d="M715.885 67.5724H716.767C718.356 67.5724 719.76 66.9488 720.98 65.6963C722.2 64.4471 722.812 62.6879 722.812 60.4221V11.3468C722.812 8.64046 722.127 6.75899 720.76 5.69809C719.392 4.63827 717.767 4.07967 715.885 4.02121V3.27209H736.664V4.02121C734.84 4.07967 733.223 4.62528 731.811 5.65479C730.4 6.68429 729.694 8.58308 729.694 11.3468V58.7918C729.694 61.6162 730.4 63.5724 731.811 64.6603C733.223 65.7483 735.531 66.2939 738.737 66.2939H744.341C746.78 66.2939 748.729 65.9994 750.185 65.4095C751.641 64.8216 752.794 63.9242 753.648 62.7171C754.501 61.5123 755.368 59.8051 756.25 57.5978H757L754.53 68.2793H715.885V67.5724Z" fill="#F1DCA9"/>
</svg>
