<svg width="42" height="43" viewBox="0 0 42 43" fill="none" xmlns="http://www.w3.org/2000/svg">
<g clip-path="url(#clip0_159_401)">
<path d="M38.1165 17.6955C38.1165 8.25949 30.44 0.583008 21.0043 0.583008C11.5641 0.583008 3.88379 8.25949 3.88379 17.6955C3.88379 24.1282 7.45166 29.7411 12.7108 32.6663C9.48866 34.7024 7.08695 37.8921 6.0449 41.5858C5.98937 41.7827 6.02923 41.9943 6.15277 42.1577C6.27631 42.3208 6.46941 42.4168 6.674 42.4168H35.3297C35.5346 42.4168 35.7273 42.3208 35.8505 42.1577C35.9744 41.9943 36.0146 41.7826 35.9591 41.5858C34.9165 37.8924 32.5152 34.703 29.293 32.6668C34.55 29.7418 38.1165 24.1287 38.1165 17.6955ZM34.4379 41.1096H7.56568C8.71666 37.8238 11.0631 35.0498 14.1122 33.3624C16.2225 34.2944 18.553 34.816 21.0043 34.816C23.4539 34.816 25.7829 34.2947 27.8919 33.3629C30.9406 35.0502 33.287 37.8241 34.4379 41.1096ZM21.0044 33.5088C12.2849 33.5088 5.1912 26.4151 5.1912 17.6956C5.1912 8.98063 12.2849 1.89042 21.0044 1.89042C29.7194 1.89042 36.8092 8.98063 36.8092 17.6956C36.8092 26.4151 29.7194 33.5088 21.0044 33.5088Z" fill="url(#paint0_linear_159_401)"/>
<path d="M21.0023 8.15283C15.7371 8.15283 11.4536 12.4344 11.4536 17.6973C11.4536 22.9625 15.7371 27.246 21.0023 27.246C26.2653 27.246 30.5471 22.9625 30.5471 17.6973C30.5472 12.4345 26.2653 8.15283 21.0023 8.15283ZM21.0023 25.9388C16.4581 25.9388 12.7609 22.2416 12.7609 17.6973C12.7609 13.1553 16.458 9.46008 21.0023 9.46008C25.5446 9.46008 29.2399 13.1553 29.2399 17.6973C29.2399 22.2416 25.5446 25.9388 21.0023 25.9388Z" fill="url(#paint1_linear_159_401)"/>
<path d="M21.0014 14.175C19.0571 14.175 17.4756 15.7559 17.4756 17.6992C17.4756 19.6432 19.0571 21.2247 21.0014 21.2247C22.9444 21.2247 24.5256 19.6432 24.5256 17.6992C24.5255 15.7559 22.9444 14.175 21.0014 14.175ZM21.0014 19.9174C19.7784 19.9174 18.7826 18.9223 18.7826 17.6992C18.7826 16.4768 19.7784 15.4823 21.0014 15.4823C22.2238 15.4823 23.2183 16.4768 23.2183 17.6992C23.2183 18.9223 22.2237 19.9174 21.0014 19.9174Z" fill="url(#paint2_linear_159_401)"/>
<path d="M33.8717 17.0461H33.0809C32.7196 17.0461 32.4272 17.3388 32.4272 17.6998C32.4272 18.0607 32.7196 18.3534 33.0809 18.3534H33.8717C34.233 18.3534 34.5254 18.0607 34.5254 17.6998C34.5254 17.3388 34.2331 17.0461 33.8717 17.0461Z" fill="url(#paint3_linear_159_401)"/>
<path d="M8.9204 17.0461H8.12921C7.76827 17.0461 7.47559 17.3388 7.47559 17.6998C7.47559 18.0607 7.76827 18.3534 8.12921 18.3534H8.9204C9.28134 18.3534 9.57403 18.0607 9.57403 17.6998C9.57403 17.3388 9.28134 17.0461 8.9204 17.0461Z" fill="url(#paint4_linear_159_401)"/>
</g>
<defs>
<linearGradient id="paint0_linear_159_401" x1="26.7497" y1="46.7232" x2="15.6395" y2="45.5436" gradientUnits="userSpaceOnUse">
<stop stop-color="#E4CB89"/>
<stop offset="1" stop-color="#FFEBB7"/>
</linearGradient>
<linearGradient id="paint1_linear_159_401" x1="24.2072" y1="29.2115" x2="18.0443" y2="28.4119" gradientUnits="userSpaceOnUse">
<stop stop-color="#E4CB89"/>
<stop offset="1" stop-color="#FFEBB7"/>
</linearGradient>
<linearGradient id="paint2_linear_159_401" x1="22.1847" y1="21.9503" x2="19.9091" y2="21.6551" gradientUnits="userSpaceOnUse">
<stop stop-color="#E4CB89"/>
<stop offset="1" stop-color="#FFEBB7"/>
</linearGradient>
<linearGradient id="paint3_linear_159_401" x1="33.8287" y1="18.488" x2="33.1687" y2="18.3505" gradientUnits="userSpaceOnUse">
<stop stop-color="#E4CB89"/>
<stop offset="1" stop-color="#FFEBB7"/>
</linearGradient>
<linearGradient id="paint4_linear_159_401" x1="8.87725" y1="18.488" x2="8.21716" y2="18.3505" gradientUnits="userSpaceOnUse">
<stop stop-color="#E4CB89"/>
<stop offset="1" stop-color="#FFEBB7"/>
</linearGradient>
<clipPath id="clip0_159_401">
<rect width="42" height="42" fill="white" transform="translate(0 0.5)"/>
</clipPath>
</defs>
</svg>
