<svg width="42" height="43" viewBox="0 0 42 43" fill="none" xmlns="http://www.w3.org/2000/svg">
<g clip-path="url(#clip0_159_333)">
<path d="M31.9108 42.0332H2.10946C1.20413 42.0332 0.466797 41.2959 0.466797 40.3905V10.5892C0.466797 9.68387 1.20413 8.94653 2.10946 8.94653H31.9108C32.8161 8.94653 33.5535 9.68387 33.5535 10.5892V40.3905C33.5535 41.2959 32.8161 42.0332 31.9108 42.0332ZM2.10946 9.87987C1.71746 9.87987 1.40013 10.1972 1.40013 10.5892V40.3905C1.40013 40.7825 1.71746 41.0999 2.10946 41.0999H31.9108C32.3028 41.0999 32.6201 40.7825 32.6201 40.3905V10.5892C32.6201 10.1972 32.3028 9.87987 31.9108 9.87987H2.10946Z" fill="url(#paint0_linear_159_333)"/>
<path d="M36.0737 37.1799H33.087C32.8257 37.1799 32.6204 36.9746 32.6204 36.7133C32.6204 36.4519 32.8257 36.2466 33.087 36.2466H36.0737C36.8484 36.2466 37.4737 35.6213 37.4737 34.8466V6.42659C37.4737 5.65193 36.8484 5.0266 36.0737 5.0266H7.64437C6.8697 5.0266 6.24437 5.65193 6.24437 6.42659V9.41326C6.24437 9.67459 6.03904 9.87993 5.7777 9.87993C5.51637 9.87993 5.31104 9.67459 5.31104 9.41326V6.42659C5.31104 5.13859 6.35637 4.09326 7.64437 4.09326H36.0737C37.3617 4.09326 38.407 5.13859 38.407 6.42659V34.8559C38.407 36.1346 37.3617 37.1799 36.0737 37.1799Z" fill="url(#paint1_linear_159_333)"/>
<path d="M39.2001 34.0532H37.9401C37.6788 34.0532 37.4734 33.8479 37.4734 33.5866C37.4734 33.3252 37.6788 33.1199 37.9401 33.1199H39.2001C39.9748 33.1199 40.6001 32.4946 40.6001 31.7199V3.29989C40.6001 2.52522 39.9748 1.89989 39.2001 1.89989H10.7801C10.0054 1.89989 9.38011 2.52522 9.38011 3.29989V4.55989C9.38011 4.82122 9.17478 5.02655 8.91344 5.02655C8.65211 5.02655 8.44678 4.82122 8.44678 4.55989V3.29989C8.44678 2.01189 9.49211 0.966553 10.7801 0.966553H39.2001C40.4881 0.966553 41.5334 2.01189 41.5334 3.29989V31.7292C41.5334 33.0079 40.4881 34.0532 39.2001 34.0532Z" fill="url(#paint2_linear_159_333)"/>
<path d="M10.6308 42.0333C10.5095 42.0333 10.3881 41.9866 10.3041 41.8933L0.606797 32.196C0.42013 32.0093 0.42013 31.72 0.606797 31.5333C0.793464 31.3466 1.0828 31.3466 1.26946 31.5333L10.9668 41.2306C11.1535 41.4173 11.1535 41.7066 10.9668 41.8933C10.8735 41.9866 10.7521 42.0333 10.6308 42.0333Z" fill="url(#paint3_linear_159_333)"/>
<path d="M19.6188 42.0332C19.4975 42.0332 19.3761 41.9866 19.2921 41.8932L0.606797 23.2172C0.42013 23.0306 0.42013 22.7412 0.606797 22.5546C0.793464 22.3679 1.0828 22.3679 1.26946 22.5546L19.9548 41.2399C20.1415 41.4266 20.1415 41.7159 19.9548 41.9026C19.8521 41.9866 19.7308 42.0332 19.6188 42.0332Z" fill="url(#paint4_linear_159_333)"/>
<path d="M28.5975 42.0332C28.4761 42.0332 28.3548 41.9865 28.2708 41.8932L0.606797 14.2292C0.42013 14.0425 0.42013 13.7532 0.606797 13.5665C0.793464 13.3798 1.0828 13.3798 1.26946 13.5665L28.9335 41.2398C29.1201 41.4265 29.1201 41.7159 28.9335 41.9025C28.8401 41.9865 28.7188 42.0332 28.5975 42.0332Z" fill="url(#paint5_linear_159_333)"/>
<path d="M33.0867 37.5439C32.9654 37.5439 32.8441 37.4973 32.7601 37.4039L5.09605 9.73992C4.90939 9.55326 4.90939 9.26392 5.09605 9.07726C5.28272 8.89059 5.57205 8.89059 5.75872 9.07726L33.4227 36.7413C33.6094 36.9279 33.6094 37.2173 33.4227 37.4039C33.3294 37.4973 33.2081 37.5439 33.0867 37.5439Z" fill="url(#paint6_linear_159_333)"/>
<path d="M33.0866 28.5559C32.9652 28.5559 32.8439 28.5093 32.7599 28.4159L14.0746 9.73992C13.8879 9.55326 13.8879 9.26392 14.0746 9.07726C14.2612 8.89059 14.5506 8.89059 14.7372 9.07726L33.4226 27.7626C33.6092 27.9493 33.6092 28.2386 33.4226 28.4253C33.3292 28.5093 33.2079 28.5559 33.0866 28.5559Z" fill="url(#paint7_linear_159_333)"/>
<path d="M33.0869 19.5773C32.9655 19.5773 32.8442 19.5306 32.7602 19.4373L23.0629 9.73992C22.8762 9.55326 22.8762 9.26392 23.0629 9.07726C23.2495 8.89059 23.5389 8.89059 23.7255 9.07726L33.4229 18.7746C33.6095 18.9613 33.6095 19.2506 33.4229 19.4373C33.3295 19.5306 33.2082 19.5773 33.0869 19.5773Z" fill="url(#paint8_linear_159_333)"/>
<path d="M8.20403 7.45323C8.17603 7.45323 8.13869 7.45323 8.11069 7.4439C8.08269 7.43457 8.05469 7.42523 8.02669 7.4159C7.99869 7.40657 7.97069 7.3879 7.94269 7.36923C7.91469 7.35057 7.89603 7.3319 7.86803 7.31323C7.78403 7.22923 7.72803 7.1079 7.72803 6.98657C7.72803 6.95857 7.72803 6.92123 7.73736 6.89323C7.74669 6.86523 7.75603 6.83723 7.76536 6.80923C7.77469 6.78123 7.79336 6.75323 7.81203 6.72523C7.83069 6.69723 7.84936 6.67857 7.86803 6.65057C7.88669 6.6319 7.91469 6.61323 7.94269 6.59457C7.97069 6.5759 7.99869 6.56657 8.02669 6.5479C8.05469 6.53857 8.08269 6.52923 8.11069 6.5199C8.26003 6.4919 8.41869 6.53857 8.53069 6.65057C8.54936 6.66923 8.56803 6.69723 8.58669 6.72523C8.60536 6.75323 8.61469 6.78123 8.63336 6.80923C8.64269 6.83723 8.65203 6.86523 8.66136 6.89323C8.67069 6.92123 8.67069 6.95857 8.67069 6.98657C8.67069 7.1079 8.62403 7.22923 8.53069 7.31323C8.43736 7.39723 8.33469 7.45323 8.20403 7.45323Z" fill="url(#paint9_linear_159_333)"/>
<path d="M11.62 7.45329C11.4987 7.45329 11.3773 7.40662 11.2933 7.31329C11.2747 7.29462 11.256 7.26662 11.2373 7.23862C11.2187 7.21062 11.2093 7.18262 11.1907 7.15462C11.1813 7.12662 11.172 7.09862 11.1627 7.07062C11.1533 7.04262 11.1533 7.00529 11.1533 6.97729C11.1533 6.94929 11.1533 6.91196 11.1627 6.88396C11.172 6.85596 11.1813 6.82796 11.1907 6.79996C11.2 6.77196 11.2187 6.74396 11.2373 6.71596C11.256 6.68796 11.2747 6.66929 11.2933 6.64129C11.4053 6.52929 11.564 6.48262 11.7133 6.51062C11.7413 6.51996 11.7693 6.52929 11.7973 6.53862C11.8253 6.54796 11.8533 6.56662 11.8813 6.58529C11.9093 6.60396 11.928 6.62262 11.956 6.64129C12.04 6.72529 12.096 6.84662 12.096 6.96796C12.096 7.08929 12.04 7.22929 11.9467 7.31329C11.928 7.33196 11.9 7.35062 11.872 7.36929C11.844 7.38796 11.816 7.39729 11.788 7.41596C11.76 7.42529 11.732 7.43462 11.704 7.44396C11.6853 7.45329 11.648 7.45329 11.62 7.45329Z" fill="url(#paint10_linear_159_333)"/>
<path d="M15.036 7.45318C14.9147 7.45318 14.7933 7.40651 14.7093 7.31318C14.6253 7.22918 14.5693 7.10784 14.5693 6.98651C14.5693 6.86518 14.616 6.74384 14.7093 6.65984C14.8213 6.54784 14.98 6.50118 15.1293 6.52918C15.1573 6.53851 15.1853 6.54784 15.2133 6.55718C15.2413 6.56651 15.2693 6.58518 15.2973 6.59451C15.3253 6.61318 15.344 6.63184 15.372 6.65051C15.456 6.73451 15.512 6.85584 15.512 6.97718C15.512 7.09851 15.4653 7.21984 15.372 7.30384C15.2787 7.40651 15.1573 7.45318 15.036 7.45318Z" fill="url(#paint11_linear_159_333)"/>
<path d="M18.4428 7.45312C18.4148 7.45312 18.3868 7.45312 18.3495 7.44379C18.3215 7.43446 18.2935 7.42512 18.2655 7.41579C18.2375 7.40646 18.2095 7.38779 18.1815 7.36912C18.1535 7.35046 18.1348 7.33179 18.1068 7.31312C18.0228 7.22912 17.9668 7.10779 17.9668 6.98646C17.9668 6.86512 18.0135 6.74379 18.1068 6.65979C18.1255 6.64112 18.1535 6.62246 18.1815 6.60379C18.2095 6.58512 18.2375 6.57579 18.2655 6.56646C18.2935 6.55712 18.3215 6.54779 18.3495 6.53846C18.4988 6.51046 18.6668 6.55712 18.7695 6.66912C18.8535 6.75312 18.9095 6.87446 18.9095 6.99579C18.9095 7.11712 18.8628 7.23846 18.7695 7.32246C18.6948 7.40646 18.5735 7.45312 18.4428 7.45312Z" fill="url(#paint12_linear_159_333)"/>
<path d="M21.8588 7.45333C21.8308 7.45333 21.8028 7.45333 21.7655 7.444C21.7375 7.43466 21.7095 7.42533 21.6815 7.416C21.6535 7.40666 21.6255 7.388 21.5975 7.36933C21.5695 7.35066 21.5508 7.332 21.5228 7.31333C21.5041 7.29466 21.4855 7.26666 21.4668 7.23866C21.4481 7.21066 21.4388 7.18266 21.4201 7.15466C21.4108 7.12666 21.4015 7.09866 21.3921 7.07066C21.3828 7.04266 21.3828 7.00533 21.3828 6.97733C21.3828 6.94933 21.3828 6.912 21.3921 6.884C21.4015 6.856 21.4108 6.828 21.4201 6.8C21.4295 6.772 21.4481 6.744 21.4668 6.716C21.4855 6.688 21.5041 6.66933 21.5228 6.64133C21.5415 6.62266 21.5695 6.604 21.5975 6.58533C21.6255 6.56666 21.6535 6.55733 21.6815 6.53866C21.7095 6.52933 21.7375 6.52 21.7655 6.51066C21.8215 6.50133 21.8868 6.50133 21.9521 6.51066C21.9801 6.52 22.0081 6.52933 22.0361 6.53866C22.0641 6.548 22.0921 6.56666 22.1201 6.58533C22.1481 6.604 22.1668 6.62266 22.1948 6.64133C22.2135 6.66 22.2321 6.688 22.2508 6.716C22.2695 6.744 22.2788 6.772 22.2975 6.8C22.3068 6.828 22.3161 6.856 22.3255 6.884C22.3348 6.912 22.3348 6.94933 22.3348 6.97733C22.3348 7.00533 22.3348 7.04266 22.3255 7.07066C22.3161 7.09866 22.3068 7.12666 22.2975 7.15466C22.2881 7.18266 22.2695 7.21066 22.2508 7.23866C22.2321 7.26666 22.2135 7.28533 22.1948 7.31333C22.1761 7.332 22.1481 7.35066 22.1201 7.36933C22.0921 7.388 22.0641 7.39733 22.0361 7.416C22.0081 7.42533 21.9801 7.43466 21.9521 7.444C21.9241 7.45333 21.8868 7.45333 21.8588 7.45333Z" fill="url(#paint13_linear_159_333)"/>
<path d="M25.2748 7.45323C25.2468 7.45323 25.2095 7.45323 25.1815 7.4439C25.1535 7.43457 25.1255 7.42523 25.0975 7.4159C25.0695 7.40657 25.0415 7.3879 25.0135 7.36923C24.9855 7.35057 24.9668 7.3319 24.9388 7.31323C24.9202 7.29457 24.9015 7.26657 24.8828 7.23857C24.8642 7.21057 24.8548 7.18257 24.8362 7.15457C24.8268 7.12657 24.8175 7.09857 24.8082 7.07057C24.7988 7.04257 24.7988 7.00523 24.7988 6.97723C24.7988 6.8559 24.8455 6.73457 24.9388 6.65057C24.9575 6.6319 24.9855 6.61323 25.0135 6.59457C25.0415 6.5759 25.0695 6.56657 25.0975 6.5479L25.1815 6.5199C25.3308 6.4919 25.4988 6.53857 25.6015 6.65057C25.6855 6.73457 25.7415 6.8559 25.7415 6.97723C25.7415 7.00523 25.7415 7.04257 25.7322 7.07057C25.7228 7.09857 25.7135 7.12657 25.7042 7.15457C25.6948 7.18257 25.6762 7.21057 25.6575 7.23857C25.6388 7.26657 25.6202 7.28523 25.6015 7.31323C25.5175 7.40657 25.3962 7.45323 25.2748 7.45323Z" fill="url(#paint14_linear_159_333)"/>
<path d="M28.6908 7.45323C28.6628 7.45323 28.6348 7.45323 28.5975 7.4439C28.5695 7.43457 28.5415 7.42523 28.5135 7.4159C28.4855 7.40657 28.4575 7.3879 28.4295 7.36923C28.4015 7.35057 28.3828 7.3319 28.3548 7.31323C28.2708 7.22923 28.2148 7.1079 28.2148 6.98657C28.2148 6.95857 28.2148 6.92123 28.2242 6.89323C28.2335 6.86523 28.2428 6.83723 28.2522 6.80923C28.2615 6.78123 28.2802 6.75323 28.2988 6.72523C28.3175 6.69723 28.3362 6.67857 28.3548 6.65057C28.3735 6.6319 28.4015 6.61323 28.4295 6.59457C28.4575 6.5759 28.4855 6.56657 28.5135 6.5479L28.5975 6.5199C28.7468 6.4919 28.9148 6.53857 29.0175 6.65057C29.0362 6.66923 29.0548 6.69723 29.0735 6.72523C29.0922 6.75323 29.1015 6.78123 29.1202 6.80923C29.1295 6.83723 29.1388 6.86523 29.1482 6.89323C29.1575 6.92123 29.1575 6.95857 29.1575 6.98657C29.1575 7.1079 29.1108 7.22923 29.0175 7.31323C28.9335 7.40657 28.8122 7.45323 28.6908 7.45323Z" fill="url(#paint15_linear_159_333)"/>
<path d="M15.036 7.45318C14.9147 7.45318 14.7933 7.40651 14.7093 7.31318C14.6253 7.22918 14.5693 7.10784 14.5693 6.98651C14.5693 6.86518 14.616 6.74384 14.7093 6.65984C14.8213 6.54784 14.98 6.50118 15.1293 6.52918C15.1573 6.53851 15.1853 6.54784 15.2133 6.55718C15.2413 6.56651 15.2693 6.58518 15.2973 6.59451C15.3253 6.61318 15.344 6.63184 15.372 6.65051C15.456 6.73451 15.512 6.85584 15.512 6.97718C15.512 7.09851 15.4653 7.21984 15.372 7.30384C15.2787 7.40651 15.1573 7.45318 15.036 7.45318Z" fill="url(#paint16_linear_159_333)"/>
<path d="M18.4428 7.45312C18.4148 7.45312 18.3868 7.45312 18.3495 7.44379C18.3215 7.43446 18.2935 7.42512 18.2655 7.41579C18.2375 7.40646 18.2095 7.38779 18.1815 7.36912C18.1535 7.35046 18.1348 7.33179 18.1068 7.31312C18.0228 7.22912 17.9668 7.10779 17.9668 6.98646C17.9668 6.86512 18.0135 6.74379 18.1068 6.65979C18.1255 6.64112 18.1535 6.62246 18.1815 6.60379C18.2095 6.58512 18.2375 6.57579 18.2655 6.56646C18.2935 6.55712 18.3215 6.54779 18.3495 6.53846C18.4988 6.51046 18.6668 6.55712 18.7695 6.66912C18.8535 6.75312 18.9095 6.87446 18.9095 6.99579C18.9095 7.11712 18.8628 7.23846 18.7695 7.32246C18.6948 7.40646 18.5735 7.45312 18.4428 7.45312Z" fill="url(#paint17_linear_159_333)"/>
<path d="M32.0976 7.45333C32.0696 7.45333 32.0322 7.45333 32.0042 7.444C31.9762 7.43466 31.9482 7.42533 31.9202 7.416C31.8922 7.40666 31.8643 7.388 31.8363 7.36933C31.8083 7.35066 31.7896 7.332 31.7616 7.31333C31.7429 7.29466 31.7243 7.26666 31.7056 7.23866C31.6869 7.21066 31.6776 7.18266 31.6589 7.15466C31.6496 7.12666 31.6402 7.09866 31.6309 7.07066C31.6216 7.04266 31.6216 7.00533 31.6216 6.97733C31.6216 6.94933 31.6216 6.912 31.6309 6.884C31.6402 6.856 31.6496 6.828 31.6589 6.8C31.6683 6.772 31.6869 6.744 31.7056 6.716C31.7243 6.688 31.7429 6.66933 31.7616 6.64133C31.7802 6.62266 31.8083 6.604 31.8363 6.58533C31.8643 6.56666 31.8922 6.55733 31.9202 6.53866L32.0042 6.51066C32.0602 6.50133 32.1256 6.50133 32.1909 6.51066C32.2189 6.52 32.2469 6.52933 32.2749 6.53866C32.3029 6.548 32.3309 6.56666 32.3589 6.58533C32.3869 6.604 32.4056 6.62266 32.4336 6.64133C32.5176 6.72533 32.5736 6.84666 32.5736 6.968C32.5736 7.08933 32.5269 7.21066 32.4336 7.29466C32.4149 7.31333 32.3869 7.332 32.3589 7.35066C32.3309 7.36933 32.3029 7.37866 32.2749 7.39733C32.2469 7.40666 32.2189 7.416 32.1909 7.42533C32.1629 7.45333 32.1349 7.45333 32.0976 7.45333Z" fill="url(#paint18_linear_159_333)"/>
<path d="M18.4428 7.45312C18.4148 7.45312 18.3868 7.45312 18.3495 7.44379C18.3215 7.43446 18.2935 7.42512 18.2655 7.41579C18.2375 7.40646 18.2095 7.38779 18.1815 7.36912C18.1535 7.35046 18.1348 7.33179 18.1068 7.31312C18.0228 7.22912 17.9668 7.10779 17.9668 6.98646C17.9668 6.86512 18.0135 6.74379 18.1068 6.65979C18.1255 6.64112 18.1535 6.62246 18.1815 6.60379C18.2095 6.58512 18.2375 6.57579 18.2655 6.56646C18.2935 6.55712 18.3215 6.54779 18.3495 6.53846C18.4988 6.51046 18.6668 6.55712 18.7695 6.66912C18.8535 6.75312 18.9095 6.87446 18.9095 6.99579C18.9095 7.11712 18.8628 7.23846 18.7695 7.32246C18.6948 7.40646 18.5735 7.45312 18.4428 7.45312Z" fill="url(#paint19_linear_159_333)"/>
<path d="M21.8588 7.45333C21.8308 7.45333 21.8028 7.45333 21.7655 7.444C21.7375 7.43466 21.7095 7.42533 21.6815 7.416C21.6535 7.40666 21.6255 7.388 21.5975 7.36933C21.5695 7.35066 21.5508 7.332 21.5228 7.31333C21.5041 7.29466 21.4855 7.26666 21.4668 7.23866C21.4481 7.21066 21.4388 7.18266 21.4201 7.15466C21.4108 7.12666 21.4015 7.09866 21.3921 7.07066C21.3828 7.04266 21.3828 7.00533 21.3828 6.97733C21.3828 6.94933 21.3828 6.912 21.3921 6.884C21.4015 6.856 21.4108 6.828 21.4201 6.8C21.4295 6.772 21.4481 6.744 21.4668 6.716C21.4855 6.688 21.5041 6.66933 21.5228 6.64133C21.5415 6.62266 21.5695 6.604 21.5975 6.58533C21.6255 6.56666 21.6535 6.55733 21.6815 6.53866C21.7095 6.52933 21.7375 6.52 21.7655 6.51066C21.8215 6.50133 21.8868 6.50133 21.9521 6.51066C21.9801 6.52 22.0081 6.52933 22.0361 6.53866C22.0641 6.548 22.0921 6.56666 22.1201 6.58533C22.1481 6.604 22.1668 6.62266 22.1948 6.64133C22.2135 6.66 22.2321 6.688 22.2508 6.716C22.2695 6.744 22.2788 6.772 22.2975 6.8C22.3068 6.828 22.3161 6.856 22.3255 6.884C22.3348 6.912 22.3348 6.94933 22.3348 6.97733C22.3348 7.00533 22.3348 7.04266 22.3255 7.07066C22.3161 7.09866 22.3068 7.12666 22.2975 7.15466C22.2881 7.18266 22.2695 7.21066 22.2508 7.23866C22.2321 7.26666 22.2135 7.28533 22.1948 7.31333C22.1761 7.332 22.1481 7.35066 22.1201 7.36933C22.0921 7.388 22.0641 7.39733 22.0361 7.416C22.0081 7.42533 21.9801 7.43466 21.9521 7.444C21.9241 7.45333 21.8868 7.45333 21.8588 7.45333Z" fill="url(#paint20_linear_159_333)"/>
<path d="M35.5136 7.45327C35.4856 7.45327 35.4483 7.45327 35.4203 7.44394C35.3923 7.43461 35.3643 7.42527 35.3363 7.41594C35.3083 7.40661 35.2803 7.38794 35.2523 7.36927C35.2243 7.35061 35.2056 7.33194 35.1776 7.31327C35.0936 7.22927 35.0376 7.10794 35.0376 6.98661C35.0376 6.95861 35.0376 6.92127 35.0469 6.89327C35.0563 6.86527 35.0656 6.83727 35.0749 6.80927C35.0843 6.78127 35.1029 6.75327 35.1216 6.72527C35.1403 6.69727 35.1589 6.67861 35.1776 6.65061C35.1963 6.63194 35.2243 6.61327 35.2523 6.59461C35.2803 6.57594 35.3083 6.56661 35.3363 6.54794C35.3643 6.53861 35.3923 6.52927 35.4203 6.51994C35.4763 6.51061 35.5416 6.51061 35.5976 6.51994C35.6256 6.52927 35.6536 6.53861 35.6816 6.54794C35.7096 6.55727 35.7376 6.57594 35.7656 6.59461C35.7936 6.61327 35.8123 6.63194 35.8403 6.65061C35.8589 6.66927 35.8776 6.69727 35.8963 6.72527C35.9149 6.75327 35.9243 6.78127 35.9429 6.80927C35.9523 6.83727 35.9616 6.86527 35.9709 6.89327C35.9803 6.92127 35.9803 6.95861 35.9803 6.98661C35.9803 7.10794 35.9336 7.22927 35.8403 7.31327C35.7563 7.40661 35.6349 7.45327 35.5136 7.45327Z" fill="url(#paint21_linear_159_333)"/>
<path d="M35.5136 10.8692C35.4856 10.8692 35.4483 10.8692 35.4203 10.8599C35.3923 10.8506 35.3643 10.8412 35.3363 10.8319C35.3083 10.8226 35.2803 10.8039 35.2523 10.7852C35.2243 10.7666 35.2056 10.7479 35.1776 10.7292C35.0936 10.6452 35.0376 10.5239 35.0376 10.4026C35.0376 10.3746 35.0376 10.3372 35.0469 10.3092C35.0563 10.2812 35.0656 10.2532 35.0749 10.2252C35.0843 10.1972 35.1029 10.1692 35.1216 10.1412C35.1403 10.1132 35.1589 10.0946 35.1776 10.0666C35.1963 10.0479 35.2243 10.0292 35.2523 10.0106C35.2803 9.99192 35.3083 9.98258 35.3363 9.96392C35.3643 9.95458 35.3923 9.94525 35.4203 9.93592C35.5696 9.90792 35.7376 9.95458 35.8403 10.0666C35.8589 10.0852 35.8776 10.1132 35.8963 10.1412C35.9149 10.1692 35.9243 10.1972 35.9429 10.2252C35.9523 10.2532 35.9616 10.2812 35.9709 10.3092C35.9803 10.3372 35.9803 10.3652 35.9803 10.4026C35.9803 10.4306 35.9803 10.4586 35.9709 10.4959C35.9616 10.5239 35.9523 10.5519 35.9429 10.5799C35.9336 10.6079 35.9149 10.6359 35.8963 10.6639C35.8776 10.6919 35.8589 10.7106 35.8403 10.7386C35.7563 10.8132 35.6349 10.8692 35.5136 10.8692Z" fill="url(#paint22_linear_159_333)"/>
<path d="M35.5136 14.276C35.4856 14.276 35.4483 14.276 35.4203 14.2667C35.3923 14.2574 35.3643 14.248 35.3363 14.2387C35.3083 14.2294 35.2803 14.2107 35.2523 14.192C35.2243 14.1734 35.2056 14.1547 35.1776 14.136C35.1589 14.1174 35.1403 14.0894 35.1216 14.0614C35.1029 14.0334 35.0936 14.0054 35.0749 13.9774C35.0656 13.9494 35.0563 13.9214 35.0469 13.8934C35.0376 13.8654 35.0376 13.8374 35.0376 13.8C35.0376 13.6787 35.0843 13.5574 35.1776 13.4734C35.1963 13.4547 35.2243 13.436 35.2523 13.4174C35.2803 13.3987 35.3083 13.3894 35.3363 13.3707C35.3643 13.3614 35.3923 13.352 35.4203 13.3427C35.4763 13.3334 35.5416 13.3334 35.6069 13.3427C35.6349 13.352 35.6629 13.3614 35.6909 13.3707C35.7189 13.38 35.7469 13.3987 35.7749 13.4174C35.8029 13.436 35.8216 13.4547 35.8496 13.4734C35.9336 13.5574 35.9896 13.6787 35.9896 13.8C35.9896 13.828 35.9896 13.856 35.9803 13.8934C35.9709 13.9214 35.9616 13.9494 35.9523 13.9774C35.9429 14.0054 35.9243 14.0334 35.9056 14.0614C35.8869 14.0894 35.8683 14.108 35.8496 14.136C35.8309 14.164 35.8029 14.1734 35.7749 14.192C35.7469 14.2107 35.7189 14.22 35.6909 14.2387C35.6629 14.248 35.6349 14.2574 35.6069 14.2667C35.5789 14.276 35.5416 14.276 35.5136 14.276Z" fill="url(#paint23_linear_159_333)"/>
<path d="M35.5136 17.6918C35.4856 17.6918 35.4483 17.6918 35.4203 17.6825C35.3923 17.6731 35.3643 17.6638 35.3363 17.6545C35.3083 17.6451 35.2803 17.6265 35.2523 17.6078C35.2243 17.5891 35.2056 17.5705 35.1776 17.5518C35.1589 17.5331 35.1403 17.5051 35.1216 17.4771C35.1029 17.4491 35.0936 17.4211 35.0749 17.3931C35.0656 17.3651 35.0563 17.3371 35.0469 17.3091C35.0376 17.2811 35.0376 17.2531 35.0376 17.2158C35.0376 17.0945 35.0843 16.9731 35.1776 16.8891C35.1963 16.8705 35.2243 16.8518 35.2523 16.8331C35.2803 16.8145 35.3083 16.8051 35.3363 16.7865C35.3643 16.7771 35.3923 16.7678 35.4203 16.7585C35.4763 16.7491 35.5416 16.7491 35.6069 16.7585C35.6349 16.7678 35.6629 16.7771 35.6909 16.7865C35.7189 16.7958 35.7469 16.8145 35.7749 16.8331C35.8029 16.8518 35.8216 16.8705 35.8496 16.8891C35.9336 16.9731 35.9896 17.0945 35.9896 17.2158C35.9896 17.2438 35.9896 17.2718 35.9803 17.3091C35.9709 17.3371 35.9616 17.3651 35.9523 17.3931C35.9429 17.4211 35.9243 17.4491 35.9056 17.4771C35.8869 17.5051 35.8683 17.5238 35.8496 17.5518C35.8309 17.5798 35.8029 17.5891 35.7749 17.6078C35.7469 17.6265 35.7189 17.6358 35.6909 17.6545C35.6629 17.6638 35.6349 17.6731 35.6069 17.6825C35.5789 17.6918 35.5416 17.6918 35.5136 17.6918Z" fill="url(#paint24_linear_159_333)"/>
<path d="M35.5136 21.1078C35.4856 21.1078 35.4483 21.1078 35.4203 21.0985C35.3923 21.0891 35.3643 21.0798 35.3363 21.0705C35.3083 21.0611 35.2803 21.0425 35.2523 21.0238C35.2243 21.0051 35.2056 20.9865 35.1776 20.9678C35.1589 20.9491 35.1403 20.9211 35.1216 20.8931C35.1029 20.8651 35.0936 20.8371 35.0749 20.8091C35.0656 20.7811 35.0563 20.7531 35.0469 20.7251C35.0376 20.6971 35.0376 20.6691 35.0376 20.6318C35.0376 20.5105 35.0843 20.3891 35.1776 20.3051C35.1963 20.2865 35.2243 20.2678 35.2523 20.2491C35.2803 20.2305 35.3083 20.2211 35.3363 20.2025C35.3643 20.1931 35.3923 20.1838 35.4203 20.1745C35.4763 20.1651 35.5416 20.1651 35.6069 20.1745C35.6349 20.1838 35.6629 20.1931 35.6909 20.2025C35.7189 20.2118 35.7469 20.2305 35.7749 20.2491C35.8029 20.2678 35.8216 20.2865 35.8496 20.3051C35.9336 20.3891 35.9896 20.5105 35.9896 20.6318C35.9896 20.6598 35.9896 20.6878 35.9803 20.7251C35.9709 20.7531 35.9616 20.7811 35.9523 20.8091C35.9429 20.8371 35.9243 20.8651 35.9056 20.8931C35.8869 20.9211 35.8683 20.9398 35.8496 20.9678C35.8309 20.9958 35.8029 21.0051 35.7749 21.0238C35.7469 21.0425 35.7189 21.0518 35.6909 21.0705C35.6629 21.0798 35.6349 21.0891 35.6069 21.0985C35.5789 21.0985 35.5416 21.1078 35.5136 21.1078Z" fill="url(#paint25_linear_159_333)"/>
<path d="M35.5136 24.5238C35.4856 24.5238 35.4483 24.5238 35.4203 24.5145C35.3923 24.5052 35.3643 24.4958 35.3363 24.4865C35.3083 24.4772 35.2803 24.4585 35.2523 24.4398C35.2243 24.4212 35.2056 24.4025 35.1776 24.3838C35.0936 24.2998 35.0376 24.1785 35.0376 24.0572C35.0376 24.0292 35.0376 23.9918 35.0469 23.9638C35.0563 23.9358 35.0656 23.9078 35.0749 23.8798C35.0843 23.8518 35.1029 23.8238 35.1216 23.7958C35.1403 23.7678 35.1589 23.7492 35.1776 23.7212C35.1963 23.7025 35.2243 23.6838 35.2523 23.6652C35.2803 23.6465 35.3083 23.6372 35.3363 23.6185C35.3643 23.6092 35.3923 23.5998 35.4203 23.5905C35.4763 23.5812 35.5416 23.5812 35.6069 23.5905C35.6349 23.5998 35.6629 23.6092 35.6909 23.6185C35.7189 23.6278 35.7469 23.6465 35.7749 23.6652C35.8029 23.6838 35.8216 23.7025 35.8496 23.7212C35.8683 23.7398 35.8869 23.7678 35.9056 23.7958C35.9243 23.8238 35.9336 23.8518 35.9523 23.8798C35.9616 23.9078 35.9709 23.9358 35.9803 23.9638C35.9896 23.9918 35.9896 24.0198 35.9896 24.0572C35.9896 24.0852 35.9896 24.1132 35.9803 24.1505C35.9709 24.1785 35.9616 24.2065 35.9523 24.2345C35.9429 24.2625 35.9243 24.2905 35.9056 24.3185C35.8869 24.3465 35.8683 24.3652 35.8496 24.3932C35.7563 24.4678 35.6349 24.5238 35.5136 24.5238Z" fill="url(#paint26_linear_159_333)"/>
<path d="M35.5136 27.9306C35.4856 27.9306 35.4483 27.9306 35.4203 27.9213C35.3923 27.912 35.3643 27.9026 35.3363 27.8933C35.3083 27.884 35.2803 27.8653 35.2523 27.8466C35.2243 27.828 35.2056 27.8093 35.1776 27.7906C35.1589 27.772 35.1403 27.744 35.1216 27.716C35.1029 27.688 35.0936 27.66 35.0749 27.632C35.0656 27.604 35.0563 27.576 35.0469 27.548C35.0376 27.52 35.0376 27.492 35.0376 27.4546C35.0376 27.4266 35.0376 27.3893 35.0469 27.3613C35.0563 27.3333 35.0656 27.3053 35.0749 27.2773C35.0843 27.2493 35.1029 27.2213 35.1216 27.1933C35.1403 27.1653 35.1589 27.1466 35.1776 27.1186C35.1963 27.1 35.2243 27.0813 35.2523 27.0626C35.2803 27.044 35.3083 27.0346 35.3363 27.016C35.3643 27.0066 35.3923 26.9973 35.4203 26.988C35.4763 26.9786 35.5416 26.9786 35.6069 26.988C35.6349 26.9973 35.6629 27.0066 35.6909 27.016C35.7189 27.0253 35.7469 27.044 35.7749 27.0626C35.8029 27.0813 35.8216 27.1 35.8496 27.1186C35.8683 27.1373 35.8869 27.1653 35.9056 27.1933C35.9243 27.2213 35.9336 27.2493 35.9523 27.2773C35.9616 27.3053 35.9709 27.3333 35.9803 27.3613C35.9896 27.3893 35.9896 27.4173 35.9896 27.4546C35.9896 27.4826 35.9896 27.5106 35.9803 27.548C35.9709 27.576 35.9616 27.604 35.9523 27.632C35.9429 27.66 35.9243 27.688 35.9056 27.716C35.8869 27.744 35.8683 27.7626 35.8496 27.7906C35.8309 27.8093 35.8029 27.828 35.7749 27.8466C35.7469 27.8653 35.7189 27.8746 35.6909 27.8933C35.6629 27.9026 35.6349 27.912 35.6069 27.9213C35.5789 27.9306 35.5416 27.9306 35.5136 27.9306Z" fill="url(#paint27_linear_159_333)"/>
<path d="M35.5136 14.276C35.4856 14.276 35.4483 14.276 35.4203 14.2667C35.3923 14.2574 35.3643 14.248 35.3363 14.2387C35.3083 14.2294 35.2803 14.2107 35.2523 14.192C35.2243 14.1734 35.2056 14.1547 35.1776 14.136C35.1589 14.1174 35.1403 14.0894 35.1216 14.0614C35.1029 14.0334 35.0936 14.0054 35.0749 13.9774C35.0656 13.9494 35.0563 13.9214 35.0469 13.8934C35.0376 13.8654 35.0376 13.8374 35.0376 13.8C35.0376 13.6787 35.0843 13.5574 35.1776 13.4734C35.1963 13.4547 35.2243 13.436 35.2523 13.4174C35.2803 13.3987 35.3083 13.3894 35.3363 13.3707C35.3643 13.3614 35.3923 13.352 35.4203 13.3427C35.4763 13.3334 35.5416 13.3334 35.6069 13.3427C35.6349 13.352 35.6629 13.3614 35.6909 13.3707C35.7189 13.38 35.7469 13.3987 35.7749 13.4174C35.8029 13.436 35.8216 13.4547 35.8496 13.4734C35.9336 13.5574 35.9896 13.6787 35.9896 13.8C35.9896 13.828 35.9896 13.856 35.9803 13.8934C35.9709 13.9214 35.9616 13.9494 35.9523 13.9774C35.9429 14.0054 35.9243 14.0334 35.9056 14.0614C35.8869 14.0894 35.8683 14.108 35.8496 14.136C35.8309 14.164 35.8029 14.1734 35.7749 14.192C35.7469 14.2107 35.7189 14.22 35.6909 14.2387C35.6629 14.248 35.6349 14.2574 35.6069 14.2667C35.5789 14.276 35.5416 14.276 35.5136 14.276Z" fill="url(#paint28_linear_159_333)"/>
<path d="M35.5136 17.6918C35.4856 17.6918 35.4483 17.6918 35.4203 17.6825C35.3923 17.6731 35.3643 17.6638 35.3363 17.6545C35.3083 17.6451 35.2803 17.6265 35.2523 17.6078C35.2243 17.5891 35.2056 17.5705 35.1776 17.5518C35.1589 17.5331 35.1403 17.5051 35.1216 17.4771C35.1029 17.4491 35.0936 17.4211 35.0749 17.3931C35.0656 17.3651 35.0563 17.3371 35.0469 17.3091C35.0376 17.2811 35.0376 17.2531 35.0376 17.2158C35.0376 17.0945 35.0843 16.9731 35.1776 16.8891C35.1963 16.8705 35.2243 16.8518 35.2523 16.8331C35.2803 16.8145 35.3083 16.8051 35.3363 16.7865C35.3643 16.7771 35.3923 16.7678 35.4203 16.7585C35.4763 16.7491 35.5416 16.7491 35.6069 16.7585C35.6349 16.7678 35.6629 16.7771 35.6909 16.7865C35.7189 16.7958 35.7469 16.8145 35.7749 16.8331C35.8029 16.8518 35.8216 16.8705 35.8496 16.8891C35.9336 16.9731 35.9896 17.0945 35.9896 17.2158C35.9896 17.2438 35.9896 17.2718 35.9803 17.3091C35.9709 17.3371 35.9616 17.3651 35.9523 17.3931C35.9429 17.4211 35.9243 17.4491 35.9056 17.4771C35.8869 17.5051 35.8683 17.5238 35.8496 17.5518C35.8309 17.5798 35.8029 17.5891 35.7749 17.6078C35.7469 17.6265 35.7189 17.6358 35.6909 17.6545C35.6629 17.6638 35.6349 17.6731 35.6069 17.6825C35.5789 17.6918 35.5416 17.6918 35.5136 17.6918Z" fill="url(#paint29_linear_159_333)"/>
<path d="M35.5136 31.3466C35.4856 31.3466 35.4483 31.3466 35.4203 31.3373C35.3923 31.328 35.3643 31.3186 35.3363 31.3093C35.3083 31.3 35.2803 31.2813 35.2523 31.2626C35.2243 31.244 35.2056 31.2253 35.1776 31.2066C35.1589 31.188 35.1403 31.16 35.1216 31.132C35.1029 31.104 35.0936 31.076 35.0749 31.048C35.0656 31.02 35.0563 30.992 35.0469 30.964C35.0376 30.936 35.0376 30.908 35.0376 30.8706C35.0376 30.8426 35.0376 30.8053 35.0469 30.7773C35.0563 30.7493 35.0656 30.7213 35.0749 30.6933C35.0843 30.6653 35.1029 30.6373 35.1216 30.6093C35.1403 30.5813 35.1589 30.5626 35.1776 30.5346C35.1963 30.516 35.2243 30.4973 35.2523 30.4786C35.2803 30.46 35.3083 30.4506 35.3363 30.432C35.3643 30.4226 35.3923 30.4133 35.4203 30.404C35.4763 30.3946 35.5416 30.3946 35.6069 30.404C35.6349 30.4133 35.6629 30.4226 35.6909 30.432C35.7189 30.4413 35.7469 30.46 35.7749 30.4786C35.8029 30.4973 35.8216 30.516 35.8496 30.5346C35.8683 30.5533 35.8869 30.5813 35.9056 30.6093C35.9243 30.6373 35.9336 30.6653 35.9523 30.6933C35.9616 30.7213 35.9709 30.7493 35.9803 30.7773C35.9896 30.8053 35.9896 30.8333 35.9896 30.8706C35.9896 30.8986 35.9896 30.9266 35.9803 30.964C35.9709 30.992 35.9616 31.02 35.9523 31.048C35.9429 31.076 35.9243 31.104 35.9056 31.132C35.8869 31.16 35.8683 31.1786 35.8496 31.2066C35.8309 31.2346 35.8029 31.244 35.7749 31.2626C35.7469 31.2813 35.7189 31.2906 35.6909 31.3093C35.6629 31.3186 35.6349 31.328 35.6069 31.3373C35.5789 31.3466 35.5416 31.3466 35.5136 31.3466Z" fill="url(#paint30_linear_159_333)"/>
<path d="M35.5136 17.6918C35.4856 17.6918 35.4483 17.6918 35.4203 17.6825C35.3923 17.6731 35.3643 17.6638 35.3363 17.6545C35.3083 17.6451 35.2803 17.6265 35.2523 17.6078C35.2243 17.5891 35.2056 17.5705 35.1776 17.5518C35.1589 17.5331 35.1403 17.5051 35.1216 17.4771C35.1029 17.4491 35.0936 17.4211 35.0749 17.3931C35.0656 17.3651 35.0563 17.3371 35.0469 17.3091C35.0376 17.2811 35.0376 17.2531 35.0376 17.2158C35.0376 17.0945 35.0843 16.9731 35.1776 16.8891C35.1963 16.8705 35.2243 16.8518 35.2523 16.8331C35.2803 16.8145 35.3083 16.8051 35.3363 16.7865C35.3643 16.7771 35.3923 16.7678 35.4203 16.7585C35.4763 16.7491 35.5416 16.7491 35.6069 16.7585C35.6349 16.7678 35.6629 16.7771 35.6909 16.7865C35.7189 16.7958 35.7469 16.8145 35.7749 16.8331C35.8029 16.8518 35.8216 16.8705 35.8496 16.8891C35.9336 16.9731 35.9896 17.0945 35.9896 17.2158C35.9896 17.2438 35.9896 17.2718 35.9803 17.3091C35.9709 17.3371 35.9616 17.3651 35.9523 17.3931C35.9429 17.4211 35.9243 17.4491 35.9056 17.4771C35.8869 17.5051 35.8683 17.5238 35.8496 17.5518C35.8309 17.5798 35.8029 17.5891 35.7749 17.6078C35.7469 17.6265 35.7189 17.6358 35.6909 17.6545C35.6629 17.6638 35.6349 17.6731 35.6069 17.6825C35.5789 17.6918 35.5416 17.6918 35.5136 17.6918Z" fill="url(#paint31_linear_159_333)"/>
<path d="M35.5136 21.1078C35.4856 21.1078 35.4483 21.1078 35.4203 21.0985C35.3923 21.0891 35.3643 21.0798 35.3363 21.0705C35.3083 21.0611 35.2803 21.0425 35.2523 21.0238C35.2243 21.0051 35.2056 20.9865 35.1776 20.9678C35.1589 20.9491 35.1403 20.9211 35.1216 20.8931C35.1029 20.8651 35.0936 20.8371 35.0749 20.8091C35.0656 20.7811 35.0563 20.7531 35.0469 20.7251C35.0376 20.6971 35.0376 20.6691 35.0376 20.6318C35.0376 20.5105 35.0843 20.3891 35.1776 20.3051C35.1963 20.2865 35.2243 20.2678 35.2523 20.2491C35.2803 20.2305 35.3083 20.2211 35.3363 20.2025C35.3643 20.1931 35.3923 20.1838 35.4203 20.1745C35.4763 20.1651 35.5416 20.1651 35.6069 20.1745C35.6349 20.1838 35.6629 20.1931 35.6909 20.2025C35.7189 20.2118 35.7469 20.2305 35.7749 20.2491C35.8029 20.2678 35.8216 20.2865 35.8496 20.3051C35.9336 20.3891 35.9896 20.5105 35.9896 20.6318C35.9896 20.6598 35.9896 20.6878 35.9803 20.7251C35.9709 20.7531 35.9616 20.7811 35.9523 20.8091C35.9429 20.8371 35.9243 20.8651 35.9056 20.8931C35.8869 20.9211 35.8683 20.9398 35.8496 20.9678C35.8309 20.9958 35.8029 21.0051 35.7749 21.0238C35.7469 21.0425 35.7189 21.0518 35.6909 21.0705C35.6629 21.0798 35.6349 21.0891 35.6069 21.0985C35.5789 21.0985 35.5416 21.1078 35.5136 21.1078Z" fill="url(#paint32_linear_159_333)"/>
<path d="M35.5136 34.7627C35.4856 34.7627 35.4483 34.7627 35.4203 34.7533C35.3923 34.744 35.3643 34.7347 35.3363 34.7253C35.3083 34.716 35.2803 34.6973 35.2523 34.6787C35.2243 34.66 35.2056 34.6413 35.1776 34.6227C35.1589 34.604 35.1403 34.576 35.1216 34.548C35.1029 34.52 35.0936 34.492 35.0749 34.464C35.0656 34.436 35.0563 34.408 35.0469 34.38C35.0376 34.352 35.0376 34.324 35.0376 34.2867C35.0376 34.2587 35.0376 34.2213 35.0469 34.1933C35.0563 34.1653 35.0656 34.1373 35.0749 34.1093C35.0843 34.0813 35.1029 34.0533 35.1216 34.0253C35.1403 33.9973 35.1589 33.9787 35.1776 33.9507C35.1963 33.932 35.2243 33.9133 35.2523 33.8947C35.2803 33.876 35.3083 33.8667 35.3363 33.848C35.3643 33.8387 35.3923 33.8293 35.4203 33.82C35.4763 33.8107 35.5416 33.8107 35.6069 33.82C35.6349 33.8293 35.6629 33.8387 35.6909 33.848C35.7189 33.8573 35.7469 33.876 35.7749 33.8947C35.8029 33.9133 35.8216 33.932 35.8496 33.9507C35.8683 33.9693 35.8869 33.9973 35.9056 34.0253C35.9243 34.0533 35.9336 34.0813 35.9523 34.1093C35.9616 34.1373 35.9709 34.1653 35.9803 34.1933C35.9896 34.2213 35.9896 34.2493 35.9896 34.2867C35.9896 34.3147 35.9896 34.3427 35.9803 34.38C35.9709 34.408 35.9616 34.436 35.9523 34.464C35.9429 34.492 35.9243 34.52 35.9056 34.548C35.8869 34.576 35.8683 34.5947 35.8496 34.6227C35.8309 34.6413 35.8029 34.66 35.7749 34.6787C35.7469 34.6973 35.7189 34.7067 35.6909 34.7253C35.6629 34.7347 35.6349 34.744 35.6069 34.7533C35.5789 34.7533 35.5416 34.7627 35.5136 34.7627Z" fill="url(#paint33_linear_159_333)"/>
</g>
<defs>
<linearGradient id="paint0_linear_159_333" x1="22.5672" y1="45.4392" x2="11.8876" y2="44.0535" gradientUnits="userSpaceOnUse">
<stop stop-color="#E4CB89"/>
<stop offset="1" stop-color="#FFEBB7"/>
</linearGradient>
<linearGradient id="paint1_linear_159_333" x1="27.4176" y1="40.5859" x2="16.7352" y2="39.1995" gradientUnits="userSpaceOnUse">
<stop stop-color="#E4CB89"/>
<stop offset="1" stop-color="#FFEBB7"/>
</linearGradient>
<linearGradient id="paint2_linear_159_333" x1="30.5471" y1="37.4592" x2="19.8676" y2="36.0735" gradientUnits="userSpaceOnUse">
<stop stop-color="#E4CB89"/>
<stop offset="1" stop-color="#FFEBB7"/>
</linearGradient>
<linearGradient id="paint3_linear_159_333" x1="7.57382" y1="43.1286" x2="4.13951" y2="42.683" gradientUnits="userSpaceOnUse">
<stop stop-color="#E4CB89"/>
<stop offset="1" stop-color="#FFEBB7"/>
</linearGradient>
<linearGradient id="paint4_linear_159_333" x1="13.5774" y1="44.0528" x2="7.24208" y2="43.2304" gradientUnits="userSpaceOnUse">
<stop stop-color="#E4CB89"/>
<stop offset="1" stop-color="#FFEBB7"/>
</linearGradient>
<linearGradient id="paint5_linear_159_333" x1="19.5747" y1="44.978" x2="10.3412" y2="43.78" gradientUnits="userSpaceOnUse">
<stop stop-color="#E4CB89"/>
<stop offset="1" stop-color="#FFEBB7"/>
</linearGradient>
<linearGradient id="paint6_linear_159_333" x1="24.064" y1="40.4887" x2="14.8305" y2="39.2907" gradientUnits="userSpaceOnUse">
<stop stop-color="#E4CB89"/>
<stop offset="1" stop-color="#FFEBB7"/>
</linearGradient>
<linearGradient id="paint7_linear_159_333" x1="27.0452" y1="30.5755" x2="20.7099" y2="29.7531" gradientUnits="userSpaceOnUse">
<stop stop-color="#E4CB89"/>
<stop offset="1" stop-color="#FFEBB7"/>
</linearGradient>
<linearGradient id="paint8_linear_159_333" x1="30.0299" y1="20.6725" x2="26.5956" y2="20.227" gradientUnits="userSpaceOnUse">
<stop stop-color="#E4CB89"/>
<stop offset="1" stop-color="#FFEBB7"/>
</linearGradient>
<linearGradient id="paint9_linear_159_333" x1="8.35768" y1="7.55013" x2="8.05343" y2="7.51059" gradientUnits="userSpaceOnUse">
<stop stop-color="#E4CB89"/>
<stop offset="1" stop-color="#FFEBB7"/>
</linearGradient>
<linearGradient id="paint10_linear_159_333" x1="11.783" y1="7.55115" x2="11.4786" y2="7.51199" gradientUnits="userSpaceOnUse">
<stop stop-color="#E4CB89"/>
<stop offset="1" stop-color="#FFEBB7"/>
</linearGradient>
<linearGradient id="paint11_linear_159_333" x1="15.199" y1="7.54911" x2="14.8948" y2="7.5092" gradientUnits="userSpaceOnUse">
<stop stop-color="#E4CB89"/>
<stop offset="1" stop-color="#FFEBB7"/>
</linearGradient>
<linearGradient id="paint12_linear_159_333" x1="18.5965" y1="7.5481" x2="18.2924" y2="7.50779" gradientUnits="userSpaceOnUse">
<stop stop-color="#E4CB89"/>
<stop offset="1" stop-color="#FFEBB7"/>
</linearGradient>
<linearGradient id="paint13_linear_159_333" x1="22.0187" y1="7.55109" x2="21.7114" y2="7.51112" gradientUnits="userSpaceOnUse">
<stop stop-color="#E4CB89"/>
<stop offset="1" stop-color="#FFEBB7"/>
</linearGradient>
<linearGradient id="paint14_linear_159_333" x1="25.4285" y1="7.55013" x2="25.1242" y2="7.51059" gradientUnits="userSpaceOnUse">
<stop stop-color="#E4CB89"/>
<stop offset="1" stop-color="#FFEBB7"/>
</linearGradient>
<linearGradient id="paint15_linear_159_333" x1="28.8445" y1="7.55013" x2="28.5402" y2="7.51059" gradientUnits="userSpaceOnUse">
<stop stop-color="#E4CB89"/>
<stop offset="1" stop-color="#FFEBB7"/>
</linearGradient>
<linearGradient id="paint16_linear_159_333" x1="15.199" y1="7.54911" x2="14.8948" y2="7.5092" gradientUnits="userSpaceOnUse">
<stop stop-color="#E4CB89"/>
<stop offset="1" stop-color="#FFEBB7"/>
</linearGradient>
<linearGradient id="paint17_linear_159_333" x1="18.5965" y1="7.5481" x2="18.2924" y2="7.50779" gradientUnits="userSpaceOnUse">
<stop stop-color="#E4CB89"/>
<stop offset="1" stop-color="#FFEBB7"/>
</linearGradient>
<linearGradient id="paint18_linear_159_333" x1="32.2575" y1="7.55109" x2="31.9502" y2="7.51112" gradientUnits="userSpaceOnUse">
<stop stop-color="#E4CB89"/>
<stop offset="1" stop-color="#FFEBB7"/>
</linearGradient>
<linearGradient id="paint19_linear_159_333" x1="18.5965" y1="7.5481" x2="18.2924" y2="7.50779" gradientUnits="userSpaceOnUse">
<stop stop-color="#E4CB89"/>
<stop offset="1" stop-color="#FFEBB7"/>
</linearGradient>
<linearGradient id="paint20_linear_159_333" x1="22.0187" y1="7.55109" x2="21.7114" y2="7.51112" gradientUnits="userSpaceOnUse">
<stop stop-color="#E4CB89"/>
<stop offset="1" stop-color="#FFEBB7"/>
</linearGradient>
<linearGradient id="paint21_linear_159_333" x1="35.6673" y1="7.55007" x2="35.363" y2="7.5105" gradientUnits="userSpaceOnUse">
<stop stop-color="#E4CB89"/>
<stop offset="1" stop-color="#FFEBB7"/>
</linearGradient>
<linearGradient id="paint22_linear_159_333" x1="35.6673" y1="10.9661" x2="35.363" y2="10.9266" gradientUnits="userSpaceOnUse">
<stop stop-color="#E4CB89"/>
<stop offset="1" stop-color="#FFEBB7"/>
</linearGradient>
<linearGradient id="paint23_linear_159_333" x1="35.6735" y1="14.3728" x2="35.3663" y2="14.3325" gradientUnits="userSpaceOnUse">
<stop stop-color="#E4CB89"/>
<stop offset="1" stop-color="#FFEBB7"/>
</linearGradient>
<linearGradient id="paint24_linear_159_333" x1="35.6735" y1="17.7886" x2="35.3663" y2="17.7482" gradientUnits="userSpaceOnUse">
<stop stop-color="#E4CB89"/>
<stop offset="1" stop-color="#FFEBB7"/>
</linearGradient>
<linearGradient id="paint25_linear_159_333" x1="35.6735" y1="21.2046" x2="35.3663" y2="21.1643" gradientUnits="userSpaceOnUse">
<stop stop-color="#E4CB89"/>
<stop offset="1" stop-color="#FFEBB7"/>
</linearGradient>
<linearGradient id="paint26_linear_159_333" x1="35.6735" y1="24.6206" x2="35.3663" y2="24.5803" gradientUnits="userSpaceOnUse">
<stop stop-color="#E4CB89"/>
<stop offset="1" stop-color="#FFEBB7"/>
</linearGradient>
<linearGradient id="paint27_linear_159_333" x1="35.6735" y1="28.0284" x2="35.3662" y2="27.9884" gradientUnits="userSpaceOnUse">
<stop stop-color="#E4CB89"/>
<stop offset="1" stop-color="#FFEBB7"/>
</linearGradient>
<linearGradient id="paint28_linear_159_333" x1="35.6735" y1="14.3728" x2="35.3663" y2="14.3325" gradientUnits="userSpaceOnUse">
<stop stop-color="#E4CB89"/>
<stop offset="1" stop-color="#FFEBB7"/>
</linearGradient>
<linearGradient id="paint29_linear_159_333" x1="35.6735" y1="17.7886" x2="35.3663" y2="17.7482" gradientUnits="userSpaceOnUse">
<stop stop-color="#E4CB89"/>
<stop offset="1" stop-color="#FFEBB7"/>
</linearGradient>
<linearGradient id="paint30_linear_159_333" x1="35.6735" y1="31.4444" x2="35.3662" y2="31.4044" gradientUnits="userSpaceOnUse">
<stop stop-color="#E4CB89"/>
<stop offset="1" stop-color="#FFEBB7"/>
</linearGradient>
<linearGradient id="paint31_linear_159_333" x1="35.6735" y1="17.7886" x2="35.3663" y2="17.7482" gradientUnits="userSpaceOnUse">
<stop stop-color="#E4CB89"/>
<stop offset="1" stop-color="#FFEBB7"/>
</linearGradient>
<linearGradient id="paint32_linear_159_333" x1="35.6735" y1="21.2046" x2="35.3663" y2="21.1643" gradientUnits="userSpaceOnUse">
<stop stop-color="#E4CB89"/>
<stop offset="1" stop-color="#FFEBB7"/>
</linearGradient>
<linearGradient id="paint33_linear_159_333" x1="35.6735" y1="34.8604" x2="35.3662" y2="34.8205" gradientUnits="userSpaceOnUse">
<stop stop-color="#E4CB89"/>
<stop offset="1" stop-color="#FFEBB7"/>
</linearGradient>
<clipPath id="clip0_159_333">
<rect width="42" height="42" fill="white" transform="translate(0 0.5)"/>
</clipPath>
</defs>
</svg>
